G04 (created by PCBNEW (2013-may-18)-stable) date Sun 22 Jun 2014 12:37:11 AM EDT*
%MOIN*%
G04 Gerber Fmt 3.4, Leading zero omitted, Abs format*
%FSLAX34Y34*%
G01*
G70*
G90*
G04 APERTURE LIST*
%ADD10C,0.00590551*%
%ADD11R,0.06X0.06*%
%ADD12C,0.06*%
%ADD13C,0.16*%
%ADD14R,0.055X0.055*%
%ADD15C,0.055*%
%ADD16R,0.025X0.045*%
%ADD17R,0.025X0.075*%
%ADD18R,0.045X0.025*%
%ADD19C,0.0130118*%
%ADD20C,0.025*%
%ADD21C,0.02*%
%ADD22C,0.015*%
%ADD23C,0.01*%
G04 APERTURE END LIST*
G54D10*
G54D11*
X25881Y-30005D03*
G54D12*
X25881Y-29005D03*
X26881Y-30005D03*
X26881Y-29005D03*
X27881Y-30005D03*
X27881Y-29005D03*
X28881Y-30005D03*
X28881Y-29005D03*
X29881Y-30005D03*
X29881Y-29005D03*
X30881Y-30005D03*
X30881Y-29005D03*
X31881Y-30005D03*
X31881Y-29005D03*
X32881Y-30005D03*
X32881Y-29005D03*
X33881Y-30005D03*
X33881Y-29005D03*
X34881Y-30005D03*
X34881Y-29005D03*
X35881Y-30005D03*
X35881Y-29005D03*
X36881Y-30005D03*
X36881Y-29005D03*
X37881Y-30005D03*
X37881Y-29005D03*
G54D13*
X35100Y-42900D03*
G54D14*
X31800Y-43700D03*
G54D15*
X31800Y-42700D03*
X31800Y-41700D03*
X31800Y-40700D03*
X31800Y-39700D03*
X31800Y-38700D03*
X31800Y-37700D03*
X31800Y-36700D03*
X31800Y-35700D03*
X31800Y-34700D03*
X31800Y-33700D03*
X31800Y-32700D03*
X25800Y-32700D03*
X25800Y-33700D03*
X25800Y-34700D03*
X25800Y-35700D03*
X25800Y-36700D03*
X25800Y-37700D03*
X25800Y-38700D03*
X25800Y-39700D03*
X25800Y-40700D03*
X25800Y-41700D03*
X25800Y-42700D03*
X25800Y-43700D03*
G54D11*
X26200Y-31100D03*
G54D12*
X27200Y-31100D03*
G54D16*
X36100Y-38600D03*
X36700Y-38600D03*
G54D17*
X37250Y-37700D03*
X36750Y-37700D03*
X36250Y-37700D03*
X35750Y-37700D03*
X35250Y-37700D03*
X34750Y-37700D03*
X34250Y-37700D03*
X33750Y-37700D03*
X33750Y-33700D03*
X34250Y-33700D03*
X34750Y-33700D03*
X35250Y-33700D03*
X35750Y-33700D03*
X36250Y-33700D03*
X36750Y-33700D03*
X37250Y-33700D03*
G54D18*
X34400Y-31500D03*
X34400Y-30900D03*
X33400Y-31800D03*
X33400Y-31200D03*
G54D19*
X33900Y-31500D03*
X34700Y-32000D03*
X37800Y-40000D03*
X37800Y-31800D03*
G54D20*
X34400Y-31500D02*
X34300Y-31500D01*
G54D21*
X33900Y-31500D02*
X33900Y-31600D01*
X33700Y-31800D02*
X33400Y-31800D01*
X33900Y-31600D02*
X33700Y-31800D01*
X33900Y-31500D02*
X34400Y-31500D01*
X36400Y-30900D02*
X36400Y-31000D01*
X26994Y-29005D02*
X27600Y-28400D01*
X27600Y-28400D02*
X35200Y-28400D01*
X35200Y-28400D02*
X36100Y-28400D01*
X36100Y-28400D02*
X36400Y-28700D01*
X36400Y-28700D02*
X36400Y-30900D01*
X26881Y-29005D02*
X26994Y-29005D01*
X37900Y-38700D02*
X36700Y-38700D01*
X38500Y-38100D02*
X37900Y-38700D01*
X38500Y-33100D02*
X38500Y-38100D01*
X36400Y-31000D02*
X38500Y-33100D01*
G54D22*
X36750Y-37700D02*
X36750Y-38650D01*
X36750Y-38650D02*
X36700Y-38700D01*
G54D20*
X36250Y-33700D02*
X36250Y-32750D01*
X35500Y-32000D02*
X34700Y-32000D01*
X36250Y-32750D02*
X35500Y-32000D01*
X37800Y-31800D02*
X39000Y-33000D01*
X39000Y-38800D02*
X37800Y-40000D01*
X39000Y-33000D02*
X39000Y-38800D01*
G54D21*
X33400Y-31200D02*
X28200Y-31200D01*
X27005Y-30005D02*
X28200Y-31200D01*
X27005Y-30005D02*
X26881Y-30005D01*
X33400Y-31200D02*
X35400Y-31200D01*
X36750Y-32550D02*
X36750Y-33700D01*
X35400Y-31200D02*
X36750Y-32550D01*
X34000Y-30800D02*
X35000Y-30800D01*
G54D23*
X34400Y-30900D02*
X34500Y-30800D01*
G54D21*
X34500Y-30800D02*
X35000Y-30800D01*
X37250Y-32450D02*
X37250Y-33700D01*
X35000Y-30800D02*
X35600Y-30800D01*
X35600Y-30800D02*
X37250Y-32450D01*
X28500Y-30800D02*
X34000Y-30800D01*
X34000Y-30800D02*
X34300Y-30800D01*
X27881Y-30181D02*
X28500Y-30800D01*
X27881Y-30005D02*
X27881Y-30181D01*
G54D23*
X34300Y-30800D02*
X34400Y-30900D01*
X34400Y-30900D02*
X34400Y-30800D01*
X34400Y-30800D02*
X34400Y-30900D01*
G54D10*
G36*
X27957Y-29011D02*
X27886Y-29081D01*
X27881Y-29076D01*
X27875Y-29081D01*
X27804Y-29011D01*
X27810Y-29005D01*
X27804Y-28999D01*
X27875Y-28929D01*
X27881Y-28934D01*
X27886Y-28929D01*
X27957Y-28999D01*
X27951Y-29005D01*
X27957Y-29011D01*
X27957Y-29011D01*
G37*
G54D23*
X27957Y-29011D02*
X27886Y-29081D01*
X27881Y-29076D01*
X27875Y-29081D01*
X27804Y-29011D01*
X27810Y-29005D01*
X27804Y-28999D01*
X27875Y-28929D01*
X27881Y-28934D01*
X27886Y-28929D01*
X27957Y-28999D01*
X27951Y-29005D01*
X27957Y-29011D01*
G54D10*
G36*
X29957Y-30011D02*
X29886Y-30081D01*
X29881Y-30076D01*
X29875Y-30081D01*
X29804Y-30011D01*
X29810Y-30005D01*
X29804Y-29999D01*
X29875Y-29929D01*
X29881Y-29934D01*
X29886Y-29929D01*
X29957Y-29999D01*
X29951Y-30005D01*
X29957Y-30011D01*
X29957Y-30011D01*
G37*
G54D23*
X29957Y-30011D02*
X29886Y-30081D01*
X29881Y-30076D01*
X29875Y-30081D01*
X29804Y-30011D01*
X29810Y-30005D01*
X29804Y-29999D01*
X29875Y-29929D01*
X29881Y-29934D01*
X29886Y-29929D01*
X29957Y-29999D01*
X29951Y-30005D01*
X29957Y-30011D01*
G54D10*
G36*
X31957Y-29011D02*
X31886Y-29081D01*
X31881Y-29076D01*
X31875Y-29081D01*
X31804Y-29011D01*
X31810Y-29005D01*
X31804Y-28999D01*
X31875Y-28929D01*
X31881Y-28934D01*
X31886Y-28929D01*
X31957Y-28999D01*
X31951Y-29005D01*
X31957Y-29011D01*
X31957Y-29011D01*
G37*
G54D23*
X31957Y-29011D02*
X31886Y-29081D01*
X31881Y-29076D01*
X31875Y-29081D01*
X31804Y-29011D01*
X31810Y-29005D01*
X31804Y-28999D01*
X31875Y-28929D01*
X31881Y-28934D01*
X31886Y-28929D01*
X31957Y-28999D01*
X31951Y-29005D01*
X31957Y-29011D01*
G54D10*
G36*
X34957Y-29011D02*
X34886Y-29081D01*
X34881Y-29076D01*
X34875Y-29081D01*
X34804Y-29011D01*
X34810Y-29005D01*
X34804Y-28999D01*
X34875Y-28929D01*
X34881Y-28934D01*
X34886Y-28929D01*
X34957Y-28999D01*
X34951Y-29005D01*
X34957Y-29011D01*
X34957Y-29011D01*
G37*
G54D23*
X34957Y-29011D02*
X34886Y-29081D01*
X34881Y-29076D01*
X34875Y-29081D01*
X34804Y-29011D01*
X34810Y-29005D01*
X34804Y-28999D01*
X34875Y-28929D01*
X34881Y-28934D01*
X34886Y-28929D01*
X34957Y-28999D01*
X34951Y-29005D01*
X34957Y-29011D01*
G54D10*
G36*
X40520Y-44920D02*
X36150Y-44920D01*
X36150Y-42692D01*
X36050Y-42449D01*
X36050Y-39012D01*
X36050Y-38650D01*
X35787Y-38650D01*
X35725Y-38712D01*
X35724Y-38775D01*
X35725Y-38874D01*
X35763Y-38966D01*
X35833Y-39037D01*
X35925Y-39075D01*
X35987Y-39075D01*
X36050Y-39012D01*
X36050Y-42449D01*
X35990Y-42306D01*
X35695Y-42010D01*
X35309Y-41850D01*
X35200Y-41850D01*
X35200Y-38262D01*
X35200Y-37750D01*
X35200Y-37650D01*
X35200Y-37137D01*
X35200Y-34262D01*
X35200Y-33750D01*
X35200Y-33650D01*
X35200Y-33137D01*
X35137Y-33075D01*
X35075Y-33074D01*
X35000Y-33106D01*
X34924Y-33074D01*
X34862Y-33075D01*
X34800Y-33137D01*
X34800Y-33650D01*
X34937Y-33650D01*
X35062Y-33650D01*
X35200Y-33650D01*
X35200Y-33750D01*
X35062Y-33750D01*
X34937Y-33750D01*
X34800Y-33750D01*
X34800Y-34262D01*
X34862Y-34325D01*
X34924Y-34325D01*
X35000Y-34293D01*
X35075Y-34325D01*
X35137Y-34325D01*
X35200Y-34262D01*
X35200Y-37137D01*
X35137Y-37075D01*
X35075Y-37074D01*
X35000Y-37106D01*
X34924Y-37074D01*
X34862Y-37075D01*
X34800Y-37137D01*
X34800Y-37650D01*
X34937Y-37650D01*
X35062Y-37650D01*
X35200Y-37650D01*
X35200Y-37750D01*
X35062Y-37750D01*
X34937Y-37750D01*
X34800Y-37750D01*
X34800Y-38262D01*
X34862Y-38325D01*
X34924Y-38325D01*
X35000Y-38293D01*
X35075Y-38325D01*
X35137Y-38325D01*
X35200Y-38262D01*
X35200Y-41850D01*
X34892Y-41849D01*
X34700Y-41929D01*
X34700Y-38262D01*
X34700Y-37750D01*
X34700Y-37650D01*
X34700Y-37137D01*
X34700Y-34262D01*
X34700Y-33750D01*
X34700Y-33650D01*
X34700Y-33137D01*
X34637Y-33075D01*
X34575Y-33074D01*
X34500Y-33106D01*
X34424Y-33074D01*
X34362Y-33075D01*
X34300Y-33137D01*
X34300Y-33650D01*
X34437Y-33650D01*
X34562Y-33650D01*
X34700Y-33650D01*
X34700Y-33750D01*
X34562Y-33750D01*
X34437Y-33750D01*
X34300Y-33750D01*
X34300Y-34262D01*
X34362Y-34325D01*
X34424Y-34325D01*
X34500Y-34293D01*
X34575Y-34325D01*
X34637Y-34325D01*
X34700Y-34262D01*
X34700Y-37137D01*
X34637Y-37075D01*
X34575Y-37074D01*
X34500Y-37106D01*
X34424Y-37074D01*
X34362Y-37075D01*
X34300Y-37137D01*
X34300Y-37650D01*
X34437Y-37650D01*
X34562Y-37650D01*
X34700Y-37650D01*
X34700Y-37750D01*
X34562Y-37750D01*
X34437Y-37750D01*
X34300Y-37750D01*
X34300Y-38262D01*
X34362Y-38325D01*
X34424Y-38325D01*
X34500Y-38293D01*
X34575Y-38325D01*
X34637Y-38325D01*
X34700Y-38262D01*
X34700Y-41929D01*
X34506Y-42009D01*
X34210Y-42304D01*
X34200Y-42329D01*
X34200Y-38262D01*
X34200Y-37750D01*
X34200Y-37650D01*
X34200Y-37137D01*
X34200Y-34262D01*
X34200Y-33750D01*
X34200Y-33650D01*
X34200Y-33137D01*
X34137Y-33075D01*
X34075Y-33074D01*
X34000Y-33106D01*
X33924Y-33074D01*
X33862Y-33075D01*
X33800Y-33137D01*
X33800Y-33650D01*
X33937Y-33650D01*
X34062Y-33650D01*
X34200Y-33650D01*
X34200Y-33750D01*
X34062Y-33750D01*
X33937Y-33750D01*
X33800Y-33750D01*
X33800Y-34262D01*
X33862Y-34325D01*
X33924Y-34325D01*
X34000Y-34293D01*
X34075Y-34325D01*
X34137Y-34325D01*
X34200Y-34262D01*
X34200Y-37137D01*
X34137Y-37075D01*
X34075Y-37074D01*
X34000Y-37106D01*
X33924Y-37074D01*
X33862Y-37075D01*
X33800Y-37137D01*
X33800Y-37650D01*
X33937Y-37650D01*
X34062Y-37650D01*
X34200Y-37650D01*
X34200Y-37750D01*
X34062Y-37750D01*
X33937Y-37750D01*
X33800Y-37750D01*
X33800Y-38262D01*
X33862Y-38325D01*
X33924Y-38325D01*
X34000Y-38293D01*
X34075Y-38325D01*
X34137Y-38325D01*
X34200Y-38262D01*
X34200Y-42329D01*
X34050Y-42690D01*
X34049Y-43107D01*
X34209Y-43494D01*
X34504Y-43789D01*
X34890Y-43949D01*
X35307Y-43950D01*
X35694Y-43790D01*
X35989Y-43495D01*
X36149Y-43109D01*
X36150Y-42692D01*
X36150Y-44920D01*
X33700Y-44920D01*
X33700Y-38262D01*
X33700Y-37750D01*
X33700Y-37650D01*
X33700Y-37137D01*
X33700Y-34262D01*
X33700Y-33750D01*
X33700Y-33650D01*
X33700Y-33137D01*
X33637Y-33075D01*
X33575Y-33074D01*
X33483Y-33112D01*
X33413Y-33183D01*
X33375Y-33275D01*
X33374Y-33374D01*
X33375Y-33587D01*
X33437Y-33650D01*
X33700Y-33650D01*
X33700Y-33750D01*
X33437Y-33750D01*
X33375Y-33812D01*
X33374Y-34025D01*
X33375Y-34124D01*
X33413Y-34216D01*
X33483Y-34287D01*
X33575Y-34325D01*
X33637Y-34325D01*
X33700Y-34262D01*
X33700Y-37137D01*
X33637Y-37075D01*
X33575Y-37074D01*
X33483Y-37112D01*
X33413Y-37183D01*
X33375Y-37275D01*
X33374Y-37374D01*
X33375Y-37587D01*
X33437Y-37650D01*
X33700Y-37650D01*
X33700Y-37750D01*
X33437Y-37750D01*
X33375Y-37812D01*
X33374Y-38025D01*
X33375Y-38124D01*
X33413Y-38216D01*
X33483Y-38287D01*
X33575Y-38325D01*
X33637Y-38325D01*
X33700Y-38262D01*
X33700Y-44920D01*
X32325Y-44920D01*
X32325Y-42596D01*
X32245Y-42403D01*
X32097Y-42255D01*
X31964Y-42199D01*
X32097Y-42145D01*
X32244Y-41997D01*
X32324Y-41804D01*
X32325Y-41596D01*
X32245Y-41403D01*
X32097Y-41255D01*
X31964Y-41199D01*
X32097Y-41145D01*
X32244Y-40997D01*
X32324Y-40804D01*
X32325Y-40596D01*
X32245Y-40403D01*
X32097Y-40255D01*
X31964Y-40199D01*
X32097Y-40145D01*
X32244Y-39997D01*
X32324Y-39804D01*
X32325Y-39596D01*
X32245Y-39403D01*
X32097Y-39255D01*
X31964Y-39199D01*
X32097Y-39145D01*
X32244Y-38997D01*
X32324Y-38804D01*
X32325Y-38596D01*
X32245Y-38403D01*
X32097Y-38255D01*
X31964Y-38199D01*
X32097Y-38145D01*
X32244Y-37997D01*
X32324Y-37804D01*
X32325Y-37596D01*
X32245Y-37403D01*
X32097Y-37255D01*
X31964Y-37199D01*
X32097Y-37145D01*
X32244Y-36997D01*
X32324Y-36804D01*
X32325Y-36596D01*
X32245Y-36403D01*
X32097Y-36255D01*
X31964Y-36199D01*
X32097Y-36145D01*
X32244Y-35997D01*
X32324Y-35804D01*
X32325Y-35596D01*
X32245Y-35403D01*
X32097Y-35255D01*
X31964Y-35199D01*
X32097Y-35145D01*
X32244Y-34997D01*
X32324Y-34804D01*
X32325Y-34596D01*
X32245Y-34403D01*
X32097Y-34255D01*
X31964Y-34199D01*
X32097Y-34145D01*
X32244Y-33997D01*
X32324Y-33804D01*
X32325Y-33596D01*
X32245Y-33403D01*
X32097Y-33255D01*
X31964Y-33199D01*
X32097Y-33145D01*
X32244Y-32997D01*
X32324Y-32804D01*
X32325Y-32596D01*
X32245Y-32403D01*
X32097Y-32255D01*
X31904Y-32175D01*
X31696Y-32174D01*
X31503Y-32254D01*
X31355Y-32402D01*
X31275Y-32595D01*
X31274Y-32803D01*
X31354Y-32997D01*
X31502Y-33144D01*
X31635Y-33200D01*
X31503Y-33254D01*
X31355Y-33402D01*
X31275Y-33595D01*
X31274Y-33803D01*
X31354Y-33997D01*
X31502Y-34144D01*
X31635Y-34200D01*
X31503Y-34254D01*
X31355Y-34402D01*
X31275Y-34595D01*
X31274Y-34803D01*
X31354Y-34997D01*
X31502Y-35144D01*
X31635Y-35200D01*
X31503Y-35254D01*
X31355Y-35402D01*
X31275Y-35595D01*
X31274Y-35803D01*
X31354Y-35997D01*
X31502Y-36144D01*
X31635Y-36200D01*
X31503Y-36254D01*
X31355Y-36402D01*
X31275Y-36595D01*
X31274Y-36803D01*
X31354Y-36997D01*
X31502Y-37144D01*
X31635Y-37200D01*
X31503Y-37254D01*
X31355Y-37402D01*
X31275Y-37595D01*
X31274Y-37803D01*
X31354Y-37997D01*
X31502Y-38144D01*
X31635Y-38200D01*
X31503Y-38254D01*
X31355Y-38402D01*
X31275Y-38595D01*
X31274Y-38803D01*
X31354Y-38997D01*
X31502Y-39144D01*
X31635Y-39200D01*
X31503Y-39254D01*
X31355Y-39402D01*
X31275Y-39595D01*
X31274Y-39803D01*
X31354Y-39997D01*
X31502Y-40144D01*
X31635Y-40200D01*
X31503Y-40254D01*
X31355Y-40402D01*
X31275Y-40595D01*
X31274Y-40803D01*
X31354Y-40997D01*
X31502Y-41144D01*
X31635Y-41200D01*
X31503Y-41254D01*
X31355Y-41402D01*
X31275Y-41595D01*
X31274Y-41803D01*
X31354Y-41997D01*
X31502Y-42144D01*
X31635Y-42200D01*
X31503Y-42254D01*
X31355Y-42402D01*
X31275Y-42595D01*
X31274Y-42803D01*
X31354Y-42997D01*
X31502Y-43144D01*
X31574Y-43174D01*
X31475Y-43174D01*
X31383Y-43212D01*
X31313Y-43283D01*
X31275Y-43375D01*
X31274Y-43474D01*
X31274Y-44024D01*
X31312Y-44116D01*
X31383Y-44186D01*
X31475Y-44224D01*
X31574Y-44225D01*
X32124Y-44225D01*
X32216Y-44187D01*
X32286Y-44116D01*
X32324Y-44024D01*
X32325Y-43925D01*
X32325Y-43375D01*
X32287Y-43283D01*
X32216Y-43213D01*
X32124Y-43175D01*
X32025Y-43174D01*
X32025Y-43174D01*
X32097Y-43145D01*
X32244Y-42997D01*
X32324Y-42804D01*
X32325Y-42596D01*
X32325Y-44920D01*
X27515Y-44920D01*
X27515Y-31485D01*
X27200Y-31170D01*
X26884Y-31485D01*
X26912Y-31581D01*
X27118Y-31654D01*
X27336Y-31643D01*
X27487Y-31581D01*
X27515Y-31485D01*
X27515Y-44920D01*
X26329Y-44920D01*
X26329Y-40775D01*
X26318Y-40567D01*
X26260Y-40427D01*
X26167Y-40402D01*
X25870Y-40700D01*
X26167Y-40997D01*
X26260Y-40972D01*
X26329Y-40775D01*
X26329Y-44920D01*
X25279Y-44920D01*
X25279Y-44250D01*
X25780Y-44250D01*
X25768Y-44224D01*
X25903Y-44225D01*
X26097Y-44145D01*
X26244Y-43997D01*
X26324Y-43804D01*
X26325Y-43596D01*
X26245Y-43403D01*
X26097Y-43255D01*
X25964Y-43199D01*
X26097Y-43145D01*
X26244Y-42997D01*
X26324Y-42804D01*
X26325Y-42596D01*
X26245Y-42403D01*
X26097Y-42255D01*
X25964Y-42199D01*
X26097Y-42145D01*
X26244Y-41997D01*
X26324Y-41804D01*
X26325Y-41596D01*
X26245Y-41403D01*
X26097Y-41255D01*
X25971Y-41202D01*
X26072Y-41160D01*
X26097Y-41067D01*
X25800Y-40770D01*
X25794Y-40776D01*
X25723Y-40705D01*
X25729Y-40700D01*
X25723Y-40694D01*
X25794Y-40623D01*
X25800Y-40629D01*
X26097Y-40332D01*
X26072Y-40239D01*
X25962Y-40200D01*
X26097Y-40145D01*
X26244Y-39997D01*
X26324Y-39804D01*
X26325Y-39596D01*
X26245Y-39403D01*
X26097Y-39255D01*
X25964Y-39199D01*
X26097Y-39145D01*
X26244Y-38997D01*
X26324Y-38804D01*
X26325Y-38596D01*
X26245Y-38403D01*
X26097Y-38255D01*
X25964Y-38199D01*
X26097Y-38145D01*
X26244Y-37997D01*
X26324Y-37804D01*
X26325Y-37596D01*
X26245Y-37403D01*
X26097Y-37255D01*
X25964Y-37199D01*
X26097Y-37145D01*
X26244Y-36997D01*
X26324Y-36804D01*
X26325Y-36596D01*
X26245Y-36403D01*
X26097Y-36255D01*
X25964Y-36199D01*
X26097Y-36145D01*
X26244Y-35997D01*
X26324Y-35804D01*
X26325Y-35596D01*
X26245Y-35403D01*
X26097Y-35255D01*
X25964Y-35199D01*
X26097Y-35145D01*
X26244Y-34997D01*
X26324Y-34804D01*
X26325Y-34596D01*
X26245Y-34403D01*
X26097Y-34255D01*
X25964Y-34199D01*
X26097Y-34145D01*
X26244Y-33997D01*
X26324Y-33804D01*
X26325Y-33596D01*
X26245Y-33403D01*
X26097Y-33255D01*
X25964Y-33199D01*
X26097Y-33145D01*
X26244Y-32997D01*
X26324Y-32804D01*
X26325Y-32596D01*
X26245Y-32403D01*
X26097Y-32255D01*
X25904Y-32175D01*
X25696Y-32174D01*
X25695Y-32175D01*
X25720Y-32150D01*
X25279Y-32150D01*
X25279Y-30850D01*
X25649Y-30850D01*
X25649Y-31449D01*
X25687Y-31541D01*
X25758Y-31611D01*
X25850Y-31649D01*
X25949Y-31650D01*
X26549Y-31650D01*
X26641Y-31612D01*
X26711Y-31541D01*
X26749Y-31449D01*
X26750Y-31396D01*
X26814Y-31415D01*
X27129Y-31100D01*
X27123Y-31094D01*
X27194Y-31023D01*
X27200Y-31029D01*
X27205Y-31023D01*
X27276Y-31094D01*
X27270Y-31100D01*
X27585Y-31415D01*
X27681Y-31387D01*
X27736Y-31231D01*
X27952Y-31447D01*
X27952Y-31447D01*
X28066Y-31523D01*
X28199Y-31549D01*
X28200Y-31550D01*
X32956Y-31550D01*
X32925Y-31625D01*
X32924Y-31724D01*
X32924Y-31974D01*
X32962Y-32066D01*
X33033Y-32136D01*
X33125Y-32174D01*
X33224Y-32175D01*
X33674Y-32175D01*
X33766Y-32137D01*
X33766Y-32136D01*
X33833Y-32123D01*
X33833Y-32123D01*
X33947Y-32047D01*
X34121Y-31873D01*
X34125Y-31874D01*
X34224Y-31875D01*
X34349Y-31875D01*
X34325Y-32000D01*
X34353Y-32143D01*
X34434Y-32265D01*
X34556Y-32346D01*
X34700Y-32375D01*
X35344Y-32375D01*
X35875Y-32905D01*
X35875Y-33074D01*
X35862Y-33075D01*
X35800Y-33137D01*
X35800Y-33650D01*
X35807Y-33650D01*
X35807Y-33750D01*
X35800Y-33750D01*
X35800Y-34262D01*
X35862Y-34325D01*
X35924Y-34325D01*
X36000Y-34293D01*
X36075Y-34324D01*
X36174Y-34325D01*
X36424Y-34325D01*
X36500Y-34293D01*
X36575Y-34324D01*
X36674Y-34325D01*
X36924Y-34325D01*
X37000Y-34293D01*
X37075Y-34324D01*
X37174Y-34325D01*
X37424Y-34325D01*
X37516Y-34287D01*
X37586Y-34216D01*
X37624Y-34124D01*
X37625Y-34025D01*
X37625Y-33275D01*
X37600Y-33214D01*
X37600Y-32694D01*
X38150Y-33244D01*
X38150Y-37955D01*
X37755Y-38350D01*
X37075Y-38350D01*
X37075Y-38325D01*
X37075Y-38325D01*
X37075Y-38324D01*
X37075Y-38324D01*
X37174Y-38325D01*
X37424Y-38325D01*
X37516Y-38287D01*
X37586Y-38216D01*
X37624Y-38124D01*
X37625Y-38025D01*
X37625Y-37275D01*
X37587Y-37183D01*
X37516Y-37113D01*
X37424Y-37075D01*
X37325Y-37074D01*
X37075Y-37074D01*
X36999Y-37106D01*
X36924Y-37075D01*
X36825Y-37074D01*
X36575Y-37074D01*
X36499Y-37106D01*
X36424Y-37075D01*
X36325Y-37074D01*
X36075Y-37074D01*
X35999Y-37106D01*
X35924Y-37075D01*
X35825Y-37074D01*
X35700Y-37074D01*
X35700Y-34262D01*
X35700Y-33750D01*
X35700Y-33650D01*
X35700Y-33137D01*
X35637Y-33075D01*
X35575Y-33074D01*
X35500Y-33106D01*
X35424Y-33074D01*
X35362Y-33075D01*
X35300Y-33137D01*
X35300Y-33650D01*
X35437Y-33650D01*
X35562Y-33650D01*
X35700Y-33650D01*
X35700Y-33750D01*
X35562Y-33750D01*
X35437Y-33750D01*
X35300Y-33750D01*
X35300Y-34262D01*
X35362Y-34325D01*
X35424Y-34325D01*
X35500Y-34293D01*
X35575Y-34325D01*
X35637Y-34325D01*
X35700Y-34262D01*
X35700Y-37074D01*
X35575Y-37074D01*
X35500Y-37106D01*
X35424Y-37074D01*
X35362Y-37075D01*
X35300Y-37137D01*
X35300Y-37650D01*
X35307Y-37650D01*
X35307Y-37750D01*
X35300Y-37750D01*
X35300Y-38262D01*
X35362Y-38325D01*
X35424Y-38325D01*
X35500Y-38293D01*
X35575Y-38324D01*
X35674Y-38325D01*
X35725Y-38325D01*
X35725Y-38325D01*
X35724Y-38424D01*
X35725Y-38487D01*
X35787Y-38550D01*
X36050Y-38550D01*
X36050Y-38542D01*
X36150Y-38542D01*
X36150Y-38550D01*
X36157Y-38550D01*
X36157Y-38650D01*
X36150Y-38650D01*
X36150Y-39012D01*
X36212Y-39075D01*
X36274Y-39075D01*
X36366Y-39037D01*
X36399Y-39003D01*
X36433Y-39036D01*
X36525Y-39074D01*
X36624Y-39075D01*
X36874Y-39075D01*
X36935Y-39050D01*
X37900Y-39050D01*
X38033Y-39023D01*
X38033Y-39023D01*
X38147Y-38947D01*
X38625Y-38469D01*
X38625Y-38644D01*
X37534Y-39734D01*
X37453Y-39856D01*
X37425Y-40000D01*
X37453Y-40143D01*
X37534Y-40265D01*
X37656Y-40346D01*
X37800Y-40375D01*
X37943Y-40346D01*
X38065Y-40265D01*
X39265Y-39065D01*
X39265Y-39065D01*
X39297Y-39016D01*
X39346Y-38943D01*
X39346Y-38943D01*
X39374Y-38800D01*
X39375Y-38800D01*
X39375Y-33000D01*
X39374Y-32999D01*
X39346Y-32856D01*
X39297Y-32783D01*
X39265Y-32734D01*
X39265Y-32734D01*
X38435Y-31905D01*
X38435Y-30087D01*
X38424Y-29868D01*
X38362Y-29717D01*
X38267Y-29690D01*
X37951Y-30005D01*
X38267Y-30320D01*
X38362Y-30293D01*
X38435Y-30087D01*
X38435Y-31905D01*
X38196Y-31665D01*
X38196Y-30391D01*
X37881Y-30076D01*
X37565Y-30391D01*
X37593Y-30486D01*
X37799Y-30560D01*
X38017Y-30549D01*
X38168Y-30486D01*
X38196Y-30391D01*
X38196Y-31665D01*
X38065Y-31534D01*
X37943Y-31453D01*
X37800Y-31425D01*
X37656Y-31453D01*
X37534Y-31534D01*
X37492Y-31597D01*
X36750Y-30855D01*
X36750Y-30546D01*
X36771Y-30555D01*
X36990Y-30555D01*
X37192Y-30472D01*
X37347Y-30317D01*
X37378Y-30241D01*
X37399Y-30293D01*
X37495Y-30320D01*
X37810Y-30005D01*
X37804Y-29999D01*
X37875Y-29929D01*
X37881Y-29934D01*
X38196Y-29619D01*
X38168Y-29524D01*
X38113Y-29504D01*
X38192Y-29472D01*
X38347Y-29317D01*
X38431Y-29115D01*
X38431Y-29001D01*
X38450Y-29020D01*
X38450Y-28279D01*
X40520Y-28279D01*
X40520Y-44920D01*
X40520Y-44920D01*
G37*
G54D23*
X40520Y-44920D02*
X36150Y-44920D01*
X36150Y-42692D01*
X36050Y-42449D01*
X36050Y-39012D01*
X36050Y-38650D01*
X35787Y-38650D01*
X35725Y-38712D01*
X35724Y-38775D01*
X35725Y-38874D01*
X35763Y-38966D01*
X35833Y-39037D01*
X35925Y-39075D01*
X35987Y-39075D01*
X36050Y-39012D01*
X36050Y-42449D01*
X35990Y-42306D01*
X35695Y-42010D01*
X35309Y-41850D01*
X35200Y-41850D01*
X35200Y-38262D01*
X35200Y-37750D01*
X35200Y-37650D01*
X35200Y-37137D01*
X35200Y-34262D01*
X35200Y-33750D01*
X35200Y-33650D01*
X35200Y-33137D01*
X35137Y-33075D01*
X35075Y-33074D01*
X35000Y-33106D01*
X34924Y-33074D01*
X34862Y-33075D01*
X34800Y-33137D01*
X34800Y-33650D01*
X34937Y-33650D01*
X35062Y-33650D01*
X35200Y-33650D01*
X35200Y-33750D01*
X35062Y-33750D01*
X34937Y-33750D01*
X34800Y-33750D01*
X34800Y-34262D01*
X34862Y-34325D01*
X34924Y-34325D01*
X35000Y-34293D01*
X35075Y-34325D01*
X35137Y-34325D01*
X35200Y-34262D01*
X35200Y-37137D01*
X35137Y-37075D01*
X35075Y-37074D01*
X35000Y-37106D01*
X34924Y-37074D01*
X34862Y-37075D01*
X34800Y-37137D01*
X34800Y-37650D01*
X34937Y-37650D01*
X35062Y-37650D01*
X35200Y-37650D01*
X35200Y-37750D01*
X35062Y-37750D01*
X34937Y-37750D01*
X34800Y-37750D01*
X34800Y-38262D01*
X34862Y-38325D01*
X34924Y-38325D01*
X35000Y-38293D01*
X35075Y-38325D01*
X35137Y-38325D01*
X35200Y-38262D01*
X35200Y-41850D01*
X34892Y-41849D01*
X34700Y-41929D01*
X34700Y-38262D01*
X34700Y-37750D01*
X34700Y-37650D01*
X34700Y-37137D01*
X34700Y-34262D01*
X34700Y-33750D01*
X34700Y-33650D01*
X34700Y-33137D01*
X34637Y-33075D01*
X34575Y-33074D01*
X34500Y-33106D01*
X34424Y-33074D01*
X34362Y-33075D01*
X34300Y-33137D01*
X34300Y-33650D01*
X34437Y-33650D01*
X34562Y-33650D01*
X34700Y-33650D01*
X34700Y-33750D01*
X34562Y-33750D01*
X34437Y-33750D01*
X34300Y-33750D01*
X34300Y-34262D01*
X34362Y-34325D01*
X34424Y-34325D01*
X34500Y-34293D01*
X34575Y-34325D01*
X34637Y-34325D01*
X34700Y-34262D01*
X34700Y-37137D01*
X34637Y-37075D01*
X34575Y-37074D01*
X34500Y-37106D01*
X34424Y-37074D01*
X34362Y-37075D01*
X34300Y-37137D01*
X34300Y-37650D01*
X34437Y-37650D01*
X34562Y-37650D01*
X34700Y-37650D01*
X34700Y-37750D01*
X34562Y-37750D01*
X34437Y-37750D01*
X34300Y-37750D01*
X34300Y-38262D01*
X34362Y-38325D01*
X34424Y-38325D01*
X34500Y-38293D01*
X34575Y-38325D01*
X34637Y-38325D01*
X34700Y-38262D01*
X34700Y-41929D01*
X34506Y-42009D01*
X34210Y-42304D01*
X34200Y-42329D01*
X34200Y-38262D01*
X34200Y-37750D01*
X34200Y-37650D01*
X34200Y-37137D01*
X34200Y-34262D01*
X34200Y-33750D01*
X34200Y-33650D01*
X34200Y-33137D01*
X34137Y-33075D01*
X34075Y-33074D01*
X34000Y-33106D01*
X33924Y-33074D01*
X33862Y-33075D01*
X33800Y-33137D01*
X33800Y-33650D01*
X33937Y-33650D01*
X34062Y-33650D01*
X34200Y-33650D01*
X34200Y-33750D01*
X34062Y-33750D01*
X33937Y-33750D01*
X33800Y-33750D01*
X33800Y-34262D01*
X33862Y-34325D01*
X33924Y-34325D01*
X34000Y-34293D01*
X34075Y-34325D01*
X34137Y-34325D01*
X34200Y-34262D01*
X34200Y-37137D01*
X34137Y-37075D01*
X34075Y-37074D01*
X34000Y-37106D01*
X33924Y-37074D01*
X33862Y-37075D01*
X33800Y-37137D01*
X33800Y-37650D01*
X33937Y-37650D01*
X34062Y-37650D01*
X34200Y-37650D01*
X34200Y-37750D01*
X34062Y-37750D01*
X33937Y-37750D01*
X33800Y-37750D01*
X33800Y-38262D01*
X33862Y-38325D01*
X33924Y-38325D01*
X34000Y-38293D01*
X34075Y-38325D01*
X34137Y-38325D01*
X34200Y-38262D01*
X34200Y-42329D01*
X34050Y-42690D01*
X34049Y-43107D01*
X34209Y-43494D01*
X34504Y-43789D01*
X34890Y-43949D01*
X35307Y-43950D01*
X35694Y-43790D01*
X35989Y-43495D01*
X36149Y-43109D01*
X36150Y-42692D01*
X36150Y-44920D01*
X33700Y-44920D01*
X33700Y-38262D01*
X33700Y-37750D01*
X33700Y-37650D01*
X33700Y-37137D01*
X33700Y-34262D01*
X33700Y-33750D01*
X33700Y-33650D01*
X33700Y-33137D01*
X33637Y-33075D01*
X33575Y-33074D01*
X33483Y-33112D01*
X33413Y-33183D01*
X33375Y-33275D01*
X33374Y-33374D01*
X33375Y-33587D01*
X33437Y-33650D01*
X33700Y-33650D01*
X33700Y-33750D01*
X33437Y-33750D01*
X33375Y-33812D01*
X33374Y-34025D01*
X33375Y-34124D01*
X33413Y-34216D01*
X33483Y-34287D01*
X33575Y-34325D01*
X33637Y-34325D01*
X33700Y-34262D01*
X33700Y-37137D01*
X33637Y-37075D01*
X33575Y-37074D01*
X33483Y-37112D01*
X33413Y-37183D01*
X33375Y-37275D01*
X33374Y-37374D01*
X33375Y-37587D01*
X33437Y-37650D01*
X33700Y-37650D01*
X33700Y-37750D01*
X33437Y-37750D01*
X33375Y-37812D01*
X33374Y-38025D01*
X33375Y-38124D01*
X33413Y-38216D01*
X33483Y-38287D01*
X33575Y-38325D01*
X33637Y-38325D01*
X33700Y-38262D01*
X33700Y-44920D01*
X32325Y-44920D01*
X32325Y-42596D01*
X32245Y-42403D01*
X32097Y-42255D01*
X31964Y-42199D01*
X32097Y-42145D01*
X32244Y-41997D01*
X32324Y-41804D01*
X32325Y-41596D01*
X32245Y-41403D01*
X32097Y-41255D01*
X31964Y-41199D01*
X32097Y-41145D01*
X32244Y-40997D01*
X32324Y-40804D01*
X32325Y-40596D01*
X32245Y-40403D01*
X32097Y-40255D01*
X31964Y-40199D01*
X32097Y-40145D01*
X32244Y-39997D01*
X32324Y-39804D01*
X32325Y-39596D01*
X32245Y-39403D01*
X32097Y-39255D01*
X31964Y-39199D01*
X32097Y-39145D01*
X32244Y-38997D01*
X32324Y-38804D01*
X32325Y-38596D01*
X32245Y-38403D01*
X32097Y-38255D01*
X31964Y-38199D01*
X32097Y-38145D01*
X32244Y-37997D01*
X32324Y-37804D01*
X32325Y-37596D01*
X32245Y-37403D01*
X32097Y-37255D01*
X31964Y-37199D01*
X32097Y-37145D01*
X32244Y-36997D01*
X32324Y-36804D01*
X32325Y-36596D01*
X32245Y-36403D01*
X32097Y-36255D01*
X31964Y-36199D01*
X32097Y-36145D01*
X32244Y-35997D01*
X32324Y-35804D01*
X32325Y-35596D01*
X32245Y-35403D01*
X32097Y-35255D01*
X31964Y-35199D01*
X32097Y-35145D01*
X32244Y-34997D01*
X32324Y-34804D01*
X32325Y-34596D01*
X32245Y-34403D01*
X32097Y-34255D01*
X31964Y-34199D01*
X32097Y-34145D01*
X32244Y-33997D01*
X32324Y-33804D01*
X32325Y-33596D01*
X32245Y-33403D01*
X32097Y-33255D01*
X31964Y-33199D01*
X32097Y-33145D01*
X32244Y-32997D01*
X32324Y-32804D01*
X32325Y-32596D01*
X32245Y-32403D01*
X32097Y-32255D01*
X31904Y-32175D01*
X31696Y-32174D01*
X31503Y-32254D01*
X31355Y-32402D01*
X31275Y-32595D01*
X31274Y-32803D01*
X31354Y-32997D01*
X31502Y-33144D01*
X31635Y-33200D01*
X31503Y-33254D01*
X31355Y-33402D01*
X31275Y-33595D01*
X31274Y-33803D01*
X31354Y-33997D01*
X31502Y-34144D01*
X31635Y-34200D01*
X31503Y-34254D01*
X31355Y-34402D01*
X31275Y-34595D01*
X31274Y-34803D01*
X31354Y-34997D01*
X31502Y-35144D01*
X31635Y-35200D01*
X31503Y-35254D01*
X31355Y-35402D01*
X31275Y-35595D01*
X31274Y-35803D01*
X31354Y-35997D01*
X31502Y-36144D01*
X31635Y-36200D01*
X31503Y-36254D01*
X31355Y-36402D01*
X31275Y-36595D01*
X31274Y-36803D01*
X31354Y-36997D01*
X31502Y-37144D01*
X31635Y-37200D01*
X31503Y-37254D01*
X31355Y-37402D01*
X31275Y-37595D01*
X31274Y-37803D01*
X31354Y-37997D01*
X31502Y-38144D01*
X31635Y-38200D01*
X31503Y-38254D01*
X31355Y-38402D01*
X31275Y-38595D01*
X31274Y-38803D01*
X31354Y-38997D01*
X31502Y-39144D01*
X31635Y-39200D01*
X31503Y-39254D01*
X31355Y-39402D01*
X31275Y-39595D01*
X31274Y-39803D01*
X31354Y-39997D01*
X31502Y-40144D01*
X31635Y-40200D01*
X31503Y-40254D01*
X31355Y-40402D01*
X31275Y-40595D01*
X31274Y-40803D01*
X31354Y-40997D01*
X31502Y-41144D01*
X31635Y-41200D01*
X31503Y-41254D01*
X31355Y-41402D01*
X31275Y-41595D01*
X31274Y-41803D01*
X31354Y-41997D01*
X31502Y-42144D01*
X31635Y-42200D01*
X31503Y-42254D01*
X31355Y-42402D01*
X31275Y-42595D01*
X31274Y-42803D01*
X31354Y-42997D01*
X31502Y-43144D01*
X31574Y-43174D01*
X31475Y-43174D01*
X31383Y-43212D01*
X31313Y-43283D01*
X31275Y-43375D01*
X31274Y-43474D01*
X31274Y-44024D01*
X31312Y-44116D01*
X31383Y-44186D01*
X31475Y-44224D01*
X31574Y-44225D01*
X32124Y-44225D01*
X32216Y-44187D01*
X32286Y-44116D01*
X32324Y-44024D01*
X32325Y-43925D01*
X32325Y-43375D01*
X32287Y-43283D01*
X32216Y-43213D01*
X32124Y-43175D01*
X32025Y-43174D01*
X32025Y-43174D01*
X32097Y-43145D01*
X32244Y-42997D01*
X32324Y-42804D01*
X32325Y-42596D01*
X32325Y-44920D01*
X27515Y-44920D01*
X27515Y-31485D01*
X27200Y-31170D01*
X26884Y-31485D01*
X26912Y-31581D01*
X27118Y-31654D01*
X27336Y-31643D01*
X27487Y-31581D01*
X27515Y-31485D01*
X27515Y-44920D01*
X26329Y-44920D01*
X26329Y-40775D01*
X26318Y-40567D01*
X26260Y-40427D01*
X26167Y-40402D01*
X25870Y-40700D01*
X26167Y-40997D01*
X26260Y-40972D01*
X26329Y-40775D01*
X26329Y-44920D01*
X25279Y-44920D01*
X25279Y-44250D01*
X25780Y-44250D01*
X25768Y-44224D01*
X25903Y-44225D01*
X26097Y-44145D01*
X26244Y-43997D01*
X26324Y-43804D01*
X26325Y-43596D01*
X26245Y-43403D01*
X26097Y-43255D01*
X25964Y-43199D01*
X26097Y-43145D01*
X26244Y-42997D01*
X26324Y-42804D01*
X26325Y-42596D01*
X26245Y-42403D01*
X26097Y-42255D01*
X25964Y-42199D01*
X26097Y-42145D01*
X26244Y-41997D01*
X26324Y-41804D01*
X26325Y-41596D01*
X26245Y-41403D01*
X26097Y-41255D01*
X25971Y-41202D01*
X26072Y-41160D01*
X26097Y-41067D01*
X25800Y-40770D01*
X25794Y-40776D01*
X25723Y-40705D01*
X25729Y-40700D01*
X25723Y-40694D01*
X25794Y-40623D01*
X25800Y-40629D01*
X26097Y-40332D01*
X26072Y-40239D01*
X25962Y-40200D01*
X26097Y-40145D01*
X26244Y-39997D01*
X26324Y-39804D01*
X26325Y-39596D01*
X26245Y-39403D01*
X26097Y-39255D01*
X25964Y-39199D01*
X26097Y-39145D01*
X26244Y-38997D01*
X26324Y-38804D01*
X26325Y-38596D01*
X26245Y-38403D01*
X26097Y-38255D01*
X25964Y-38199D01*
X26097Y-38145D01*
X26244Y-37997D01*
X26324Y-37804D01*
X26325Y-37596D01*
X26245Y-37403D01*
X26097Y-37255D01*
X25964Y-37199D01*
X26097Y-37145D01*
X26244Y-36997D01*
X26324Y-36804D01*
X26325Y-36596D01*
X26245Y-36403D01*
X26097Y-36255D01*
X25964Y-36199D01*
X26097Y-36145D01*
X26244Y-35997D01*
X26324Y-35804D01*
X26325Y-35596D01*
X26245Y-35403D01*
X26097Y-35255D01*
X25964Y-35199D01*
X26097Y-35145D01*
X26244Y-34997D01*
X26324Y-34804D01*
X26325Y-34596D01*
X26245Y-34403D01*
X26097Y-34255D01*
X25964Y-34199D01*
X26097Y-34145D01*
X26244Y-33997D01*
X26324Y-33804D01*
X26325Y-33596D01*
X26245Y-33403D01*
X26097Y-33255D01*
X25964Y-33199D01*
X26097Y-33145D01*
X26244Y-32997D01*
X26324Y-32804D01*
X26325Y-32596D01*
X26245Y-32403D01*
X26097Y-32255D01*
X25904Y-32175D01*
X25696Y-32174D01*
X25695Y-32175D01*
X25720Y-32150D01*
X25279Y-32150D01*
X25279Y-30850D01*
X25649Y-30850D01*
X25649Y-31449D01*
X25687Y-31541D01*
X25758Y-31611D01*
X25850Y-31649D01*
X25949Y-31650D01*
X26549Y-31650D01*
X26641Y-31612D01*
X26711Y-31541D01*
X26749Y-31449D01*
X26750Y-31396D01*
X26814Y-31415D01*
X27129Y-31100D01*
X27123Y-31094D01*
X27194Y-31023D01*
X27200Y-31029D01*
X27205Y-31023D01*
X27276Y-31094D01*
X27270Y-31100D01*
X27585Y-31415D01*
X27681Y-31387D01*
X27736Y-31231D01*
X27952Y-31447D01*
X27952Y-31447D01*
X28066Y-31523D01*
X28199Y-31549D01*
X28200Y-31550D01*
X32956Y-31550D01*
X32925Y-31625D01*
X32924Y-31724D01*
X32924Y-31974D01*
X32962Y-32066D01*
X33033Y-32136D01*
X33125Y-32174D01*
X33224Y-32175D01*
X33674Y-32175D01*
X33766Y-32137D01*
X33766Y-32136D01*
X33833Y-32123D01*
X33833Y-32123D01*
X33947Y-32047D01*
X34121Y-31873D01*
X34125Y-31874D01*
X34224Y-31875D01*
X34349Y-31875D01*
X34325Y-32000D01*
X34353Y-32143D01*
X34434Y-32265D01*
X34556Y-32346D01*
X34700Y-32375D01*
X35344Y-32375D01*
X35875Y-32905D01*
X35875Y-33074D01*
X35862Y-33075D01*
X35800Y-33137D01*
X35800Y-33650D01*
X35807Y-33650D01*
X35807Y-33750D01*
X35800Y-33750D01*
X35800Y-34262D01*
X35862Y-34325D01*
X35924Y-34325D01*
X36000Y-34293D01*
X36075Y-34324D01*
X36174Y-34325D01*
X36424Y-34325D01*
X36500Y-34293D01*
X36575Y-34324D01*
X36674Y-34325D01*
X36924Y-34325D01*
X37000Y-34293D01*
X37075Y-34324D01*
X37174Y-34325D01*
X37424Y-34325D01*
X37516Y-34287D01*
X37586Y-34216D01*
X37624Y-34124D01*
X37625Y-34025D01*
X37625Y-33275D01*
X37600Y-33214D01*
X37600Y-32694D01*
X38150Y-33244D01*
X38150Y-37955D01*
X37755Y-38350D01*
X37075Y-38350D01*
X37075Y-38325D01*
X37075Y-38325D01*
X37075Y-38324D01*
X37075Y-38324D01*
X37174Y-38325D01*
X37424Y-38325D01*
X37516Y-38287D01*
X37586Y-38216D01*
X37624Y-38124D01*
X37625Y-38025D01*
X37625Y-37275D01*
X37587Y-37183D01*
X37516Y-37113D01*
X37424Y-37075D01*
X37325Y-37074D01*
X37075Y-37074D01*
X36999Y-37106D01*
X36924Y-37075D01*
X36825Y-37074D01*
X36575Y-37074D01*
X36499Y-37106D01*
X36424Y-37075D01*
X36325Y-37074D01*
X36075Y-37074D01*
X35999Y-37106D01*
X35924Y-37075D01*
X35825Y-37074D01*
X35700Y-37074D01*
X35700Y-34262D01*
X35700Y-33750D01*
X35700Y-33650D01*
X35700Y-33137D01*
X35637Y-33075D01*
X35575Y-33074D01*
X35500Y-33106D01*
X35424Y-33074D01*
X35362Y-33075D01*
X35300Y-33137D01*
X35300Y-33650D01*
X35437Y-33650D01*
X35562Y-33650D01*
X35700Y-33650D01*
X35700Y-33750D01*
X35562Y-33750D01*
X35437Y-33750D01*
X35300Y-33750D01*
X35300Y-34262D01*
X35362Y-34325D01*
X35424Y-34325D01*
X35500Y-34293D01*
X35575Y-34325D01*
X35637Y-34325D01*
X35700Y-34262D01*
X35700Y-37074D01*
X35575Y-37074D01*
X35500Y-37106D01*
X35424Y-37074D01*
X35362Y-37075D01*
X35300Y-37137D01*
X35300Y-37650D01*
X35307Y-37650D01*
X35307Y-37750D01*
X35300Y-37750D01*
X35300Y-38262D01*
X35362Y-38325D01*
X35424Y-38325D01*
X35500Y-38293D01*
X35575Y-38324D01*
X35674Y-38325D01*
X35725Y-38325D01*
X35725Y-38325D01*
X35724Y-38424D01*
X35725Y-38487D01*
X35787Y-38550D01*
X36050Y-38550D01*
X36050Y-38542D01*
X36150Y-38542D01*
X36150Y-38550D01*
X36157Y-38550D01*
X36157Y-38650D01*
X36150Y-38650D01*
X36150Y-39012D01*
X36212Y-39075D01*
X36274Y-39075D01*
X36366Y-39037D01*
X36399Y-39003D01*
X36433Y-39036D01*
X36525Y-39074D01*
X36624Y-39075D01*
X36874Y-39075D01*
X36935Y-39050D01*
X37900Y-39050D01*
X38033Y-39023D01*
X38033Y-39023D01*
X38147Y-38947D01*
X38625Y-38469D01*
X38625Y-38644D01*
X37534Y-39734D01*
X37453Y-39856D01*
X37425Y-40000D01*
X37453Y-40143D01*
X37534Y-40265D01*
X37656Y-40346D01*
X37800Y-40375D01*
X37943Y-40346D01*
X38065Y-40265D01*
X39265Y-39065D01*
X39265Y-39065D01*
X39297Y-39016D01*
X39346Y-38943D01*
X39346Y-38943D01*
X39374Y-38800D01*
X39375Y-38800D01*
X39375Y-33000D01*
X39374Y-32999D01*
X39346Y-32856D01*
X39297Y-32783D01*
X39265Y-32734D01*
X39265Y-32734D01*
X38435Y-31905D01*
X38435Y-30087D01*
X38424Y-29868D01*
X38362Y-29717D01*
X38267Y-29690D01*
X37951Y-30005D01*
X38267Y-30320D01*
X38362Y-30293D01*
X38435Y-30087D01*
X38435Y-31905D01*
X38196Y-31665D01*
X38196Y-30391D01*
X37881Y-30076D01*
X37565Y-30391D01*
X37593Y-30486D01*
X37799Y-30560D01*
X38017Y-30549D01*
X38168Y-30486D01*
X38196Y-30391D01*
X38196Y-31665D01*
X38065Y-31534D01*
X37943Y-31453D01*
X37800Y-31425D01*
X37656Y-31453D01*
X37534Y-31534D01*
X37492Y-31597D01*
X36750Y-30855D01*
X36750Y-30546D01*
X36771Y-30555D01*
X36990Y-30555D01*
X37192Y-30472D01*
X37347Y-30317D01*
X37378Y-30241D01*
X37399Y-30293D01*
X37495Y-30320D01*
X37810Y-30005D01*
X37804Y-29999D01*
X37875Y-29929D01*
X37881Y-29934D01*
X38196Y-29619D01*
X38168Y-29524D01*
X38113Y-29504D01*
X38192Y-29472D01*
X38347Y-29317D01*
X38431Y-29115D01*
X38431Y-29001D01*
X38450Y-29020D01*
X38450Y-28279D01*
X40520Y-28279D01*
X40520Y-44920D01*
M02*
