G04 (created by PCBNEW (2013-may-18)-stable) date Sun 22 Jun 2014 12:37:11 AM EDT*
%MOIN*%
G04 Gerber Fmt 3.4, Leading zero omitted, Abs format*
%FSLAX34Y34*%
G01*
G70*
G90*
G04 APERTURE LIST*
%ADD10C,0.00590551*%
%ADD11R,0.06X0.06*%
%ADD12C,0.06*%
%ADD13C,0.16*%
%ADD14R,0.055X0.055*%
%ADD15C,0.055*%
%ADD16R,0.19685X0.106299*%
%ADD17C,0.669291*%
%ADD18C,0.0130118*%
%ADD19C,0.02*%
%ADD20C,0.025*%
%ADD21C,0.01*%
G04 APERTURE END LIST*
G54D10*
G54D11*
X25881Y-30005D03*
G54D12*
X25881Y-29005D03*
X26881Y-30005D03*
X26881Y-29005D03*
X27881Y-30005D03*
X27881Y-29005D03*
X28881Y-30005D03*
X28881Y-29005D03*
X29881Y-30005D03*
X29881Y-29005D03*
X30881Y-30005D03*
X30881Y-29005D03*
X31881Y-30005D03*
X31881Y-29005D03*
X32881Y-30005D03*
X32881Y-29005D03*
X33881Y-30005D03*
X33881Y-29005D03*
X34881Y-30005D03*
X34881Y-29005D03*
X35881Y-30005D03*
X35881Y-29005D03*
X36881Y-30005D03*
X36881Y-29005D03*
X37881Y-30005D03*
X37881Y-29005D03*
G54D13*
X35100Y-42900D03*
G54D14*
X31800Y-43700D03*
G54D15*
X31800Y-42700D03*
X31800Y-41700D03*
X31800Y-40700D03*
X31800Y-39700D03*
X31800Y-38700D03*
X31800Y-37700D03*
X31800Y-36700D03*
X31800Y-35700D03*
X31800Y-34700D03*
X31800Y-33700D03*
X31800Y-32700D03*
X25800Y-32700D03*
X25800Y-33700D03*
X25800Y-34700D03*
X25800Y-35700D03*
X25800Y-36700D03*
X25800Y-37700D03*
X25800Y-38700D03*
X25800Y-39700D03*
X25800Y-40700D03*
X25800Y-41700D03*
X25800Y-42700D03*
X25800Y-43700D03*
G54D11*
X26200Y-31100D03*
G54D12*
X27200Y-31100D03*
G54D16*
X36400Y-31711D03*
X36400Y-40688D03*
G54D17*
X36400Y-36200D03*
G54D18*
X33900Y-31500D03*
X34700Y-32000D03*
X37800Y-40000D03*
X37800Y-31800D03*
G54D19*
X33881Y-30005D02*
X33881Y-31481D01*
X33881Y-31481D02*
X33900Y-31500D01*
G54D20*
X25881Y-29005D02*
X25794Y-29005D01*
X25300Y-43200D02*
X25800Y-43700D01*
X25300Y-29500D02*
X25300Y-43200D01*
X25794Y-29005D02*
X25300Y-29500D01*
X25881Y-29005D02*
X26881Y-29005D01*
X34988Y-31711D02*
X36400Y-31711D01*
X34700Y-32000D02*
X34988Y-31711D01*
X37800Y-31800D02*
X36488Y-31800D01*
X36488Y-31800D02*
X36400Y-31711D01*
X36400Y-40688D02*
X37111Y-40688D01*
X37800Y-40000D02*
X37111Y-40688D01*
G54D19*
X29881Y-29005D02*
X29905Y-29005D01*
X31800Y-31200D02*
X31800Y-32700D01*
X31400Y-30800D02*
X31800Y-31200D01*
X31400Y-29700D02*
X31400Y-30800D01*
X31200Y-29500D02*
X31400Y-29700D01*
X30400Y-29500D02*
X31200Y-29500D01*
X29905Y-29005D02*
X30400Y-29500D01*
X32881Y-29005D02*
X32881Y-29018D01*
X31900Y-41700D02*
X31800Y-41700D01*
X32400Y-41200D02*
X31900Y-41700D01*
X32400Y-31400D02*
X32400Y-41200D01*
X32400Y-29500D02*
X32400Y-31400D01*
X32881Y-29018D02*
X32400Y-29500D01*
X26500Y-31800D02*
X26300Y-31600D01*
X26300Y-31600D02*
X26300Y-31200D01*
X26300Y-31200D02*
X26200Y-31100D01*
X26300Y-33700D02*
X26500Y-33500D01*
X26500Y-33500D02*
X26500Y-32400D01*
X26500Y-32400D02*
X26500Y-31800D01*
X25800Y-33700D02*
X26300Y-33700D01*
G54D10*
G36*
X40520Y-44920D02*
X40013Y-44920D01*
X40013Y-35577D01*
X39500Y-34241D01*
X39395Y-34085D01*
X38983Y-33686D01*
X38913Y-33757D01*
X38913Y-33616D01*
X38514Y-33204D01*
X38435Y-33169D01*
X38435Y-30087D01*
X38424Y-29868D01*
X38362Y-29717D01*
X38267Y-29690D01*
X37951Y-30005D01*
X38267Y-30320D01*
X38362Y-30293D01*
X38435Y-30087D01*
X38435Y-33169D01*
X38196Y-33062D01*
X38196Y-30391D01*
X37881Y-30076D01*
X37565Y-30391D01*
X37593Y-30486D01*
X37799Y-30560D01*
X38017Y-30549D01*
X38168Y-30486D01*
X38196Y-30391D01*
X38196Y-33062D01*
X38175Y-33053D01*
X38175Y-31800D01*
X38146Y-31656D01*
X38065Y-31534D01*
X37943Y-31453D01*
X37800Y-31425D01*
X37634Y-31425D01*
X37634Y-31130D01*
X37596Y-31038D01*
X37526Y-30968D01*
X37434Y-30930D01*
X37334Y-30930D01*
X35366Y-30930D01*
X35274Y-30968D01*
X35203Y-31038D01*
X35165Y-31130D01*
X35165Y-31229D01*
X35165Y-31336D01*
X34988Y-31336D01*
X34844Y-31365D01*
X34723Y-31446D01*
X34434Y-31734D01*
X34353Y-31856D01*
X34325Y-32000D01*
X34353Y-32143D01*
X34434Y-32265D01*
X34556Y-32346D01*
X34700Y-32375D01*
X34843Y-32346D01*
X34965Y-32265D01*
X35143Y-32086D01*
X35165Y-32086D01*
X35165Y-32292D01*
X35203Y-32384D01*
X35273Y-32455D01*
X35365Y-32493D01*
X35465Y-32493D01*
X37433Y-32493D01*
X37525Y-32455D01*
X37596Y-32385D01*
X37634Y-32293D01*
X37634Y-32193D01*
X37634Y-32175D01*
X37800Y-32175D01*
X37943Y-32146D01*
X38065Y-32065D01*
X38146Y-31943D01*
X38175Y-31800D01*
X38175Y-33053D01*
X37207Y-32623D01*
X35777Y-32586D01*
X34441Y-33099D01*
X34285Y-33204D01*
X33886Y-33616D01*
X36400Y-36129D01*
X38913Y-33616D01*
X38913Y-33757D01*
X36470Y-36200D01*
X38983Y-38713D01*
X39395Y-38314D01*
X39976Y-37007D01*
X40013Y-35577D01*
X40013Y-44920D01*
X38913Y-44920D01*
X38913Y-38783D01*
X36400Y-36270D01*
X36329Y-36341D01*
X36329Y-36200D01*
X33816Y-33686D01*
X33404Y-34085D01*
X32823Y-35392D01*
X32786Y-36822D01*
X33299Y-38158D01*
X33404Y-38314D01*
X33816Y-38713D01*
X36329Y-36200D01*
X36329Y-36341D01*
X33886Y-38783D01*
X34285Y-39195D01*
X35592Y-39776D01*
X37022Y-39813D01*
X38358Y-39300D01*
X38514Y-39195D01*
X38913Y-38783D01*
X38913Y-44920D01*
X38174Y-44920D01*
X38174Y-40000D01*
X38146Y-39856D01*
X38065Y-39734D01*
X37943Y-39653D01*
X37800Y-39625D01*
X37656Y-39653D01*
X37534Y-39734D01*
X37362Y-39906D01*
X37334Y-39906D01*
X35366Y-39906D01*
X35274Y-39944D01*
X35203Y-40014D01*
X35165Y-40106D01*
X35165Y-40206D01*
X35165Y-41269D01*
X35203Y-41361D01*
X35273Y-41431D01*
X35365Y-41469D01*
X35465Y-41469D01*
X37433Y-41469D01*
X37525Y-41431D01*
X37596Y-41361D01*
X37634Y-41269D01*
X37634Y-41170D01*
X37634Y-40696D01*
X38065Y-40265D01*
X38146Y-40143D01*
X38174Y-40000D01*
X38174Y-44920D01*
X36150Y-44920D01*
X36150Y-42692D01*
X35990Y-42306D01*
X35695Y-42010D01*
X35309Y-41850D01*
X34892Y-41849D01*
X34506Y-42009D01*
X34210Y-42304D01*
X34050Y-42690D01*
X34049Y-43107D01*
X34209Y-43494D01*
X34504Y-43789D01*
X34890Y-43949D01*
X35307Y-43950D01*
X35694Y-43790D01*
X35989Y-43495D01*
X36149Y-43109D01*
X36150Y-42692D01*
X36150Y-44920D01*
X30196Y-44920D01*
X30196Y-30391D01*
X29881Y-30076D01*
X29565Y-30391D01*
X29593Y-30486D01*
X29799Y-30560D01*
X30017Y-30549D01*
X30168Y-30486D01*
X30196Y-30391D01*
X30196Y-44920D01*
X27754Y-44920D01*
X27754Y-31181D01*
X27743Y-30963D01*
X27681Y-30812D01*
X27585Y-30784D01*
X27270Y-31100D01*
X27585Y-31415D01*
X27681Y-31387D01*
X27754Y-31181D01*
X27754Y-44920D01*
X27515Y-44920D01*
X27515Y-31485D01*
X27200Y-31170D01*
X26884Y-31485D01*
X26912Y-31581D01*
X27118Y-31654D01*
X27336Y-31643D01*
X27487Y-31581D01*
X27515Y-31485D01*
X27515Y-44920D01*
X26329Y-44920D01*
X26329Y-40775D01*
X26318Y-40567D01*
X26260Y-40427D01*
X26167Y-40402D01*
X25870Y-40700D01*
X26167Y-40997D01*
X26260Y-40972D01*
X26329Y-40775D01*
X26329Y-44920D01*
X25279Y-44920D01*
X25279Y-44250D01*
X25800Y-44250D01*
X25781Y-44224D01*
X25903Y-44225D01*
X26097Y-44145D01*
X26244Y-43997D01*
X26324Y-43804D01*
X26325Y-43596D01*
X26245Y-43403D01*
X26097Y-43255D01*
X25964Y-43199D01*
X26097Y-43145D01*
X26244Y-42997D01*
X26324Y-42804D01*
X26325Y-42596D01*
X26245Y-42403D01*
X26097Y-42255D01*
X25964Y-42199D01*
X26097Y-42145D01*
X26244Y-41997D01*
X26324Y-41804D01*
X26325Y-41596D01*
X26245Y-41403D01*
X26097Y-41255D01*
X25971Y-41202D01*
X26072Y-41160D01*
X26097Y-41067D01*
X25800Y-40770D01*
X25794Y-40776D01*
X25723Y-40705D01*
X25729Y-40700D01*
X25723Y-40694D01*
X25794Y-40623D01*
X25800Y-40629D01*
X26097Y-40332D01*
X26072Y-40239D01*
X25962Y-40200D01*
X26097Y-40145D01*
X26244Y-39997D01*
X26324Y-39804D01*
X26325Y-39596D01*
X26245Y-39403D01*
X26097Y-39255D01*
X25964Y-39199D01*
X26097Y-39145D01*
X26244Y-38997D01*
X26324Y-38804D01*
X26325Y-38596D01*
X26245Y-38403D01*
X26097Y-38255D01*
X25964Y-38199D01*
X26097Y-38145D01*
X26244Y-37997D01*
X26324Y-37804D01*
X26325Y-37596D01*
X26245Y-37403D01*
X26097Y-37255D01*
X25964Y-37199D01*
X26097Y-37145D01*
X26244Y-36997D01*
X26324Y-36804D01*
X26325Y-36596D01*
X26245Y-36403D01*
X26097Y-36255D01*
X25964Y-36199D01*
X26097Y-36145D01*
X26244Y-35997D01*
X26324Y-35804D01*
X26325Y-35596D01*
X26245Y-35403D01*
X26097Y-35255D01*
X25964Y-35199D01*
X26097Y-35145D01*
X26244Y-34997D01*
X26324Y-34804D01*
X26325Y-34596D01*
X26245Y-34403D01*
X26097Y-34255D01*
X25964Y-34199D01*
X26097Y-34145D01*
X26192Y-34050D01*
X26300Y-34050D01*
X26433Y-34023D01*
X26433Y-34023D01*
X26547Y-33947D01*
X26747Y-33747D01*
X26823Y-33633D01*
X26850Y-33500D01*
X26850Y-32400D01*
X26850Y-31800D01*
X26823Y-31666D01*
X26747Y-31552D01*
X26719Y-31524D01*
X26749Y-31449D01*
X26750Y-31396D01*
X26814Y-31415D01*
X27129Y-31100D01*
X27123Y-31094D01*
X27194Y-31023D01*
X27200Y-31029D01*
X27515Y-30714D01*
X27487Y-30618D01*
X27461Y-30609D01*
X27590Y-30480D01*
X27771Y-30555D01*
X27990Y-30555D01*
X28192Y-30472D01*
X28347Y-30317D01*
X28381Y-30235D01*
X28414Y-30316D01*
X28569Y-30471D01*
X28771Y-30555D01*
X28990Y-30555D01*
X29192Y-30472D01*
X29347Y-30317D01*
X29378Y-30241D01*
X29399Y-30293D01*
X29495Y-30320D01*
X29810Y-30005D01*
X29804Y-29999D01*
X29875Y-29929D01*
X29881Y-29934D01*
X29886Y-29929D01*
X29957Y-29999D01*
X29951Y-30005D01*
X30267Y-30320D01*
X30362Y-30293D01*
X30382Y-30238D01*
X30414Y-30316D01*
X30569Y-30471D01*
X30771Y-30555D01*
X30990Y-30555D01*
X31050Y-30530D01*
X31050Y-30800D01*
X31076Y-30933D01*
X31152Y-31047D01*
X31450Y-31344D01*
X31450Y-32307D01*
X31355Y-32402D01*
X31275Y-32595D01*
X31274Y-32803D01*
X31354Y-32997D01*
X31502Y-33144D01*
X31635Y-33200D01*
X31503Y-33254D01*
X31355Y-33402D01*
X31275Y-33595D01*
X31274Y-33803D01*
X31354Y-33997D01*
X31502Y-34144D01*
X31635Y-34200D01*
X31503Y-34254D01*
X31355Y-34402D01*
X31275Y-34595D01*
X31274Y-34803D01*
X31354Y-34997D01*
X31502Y-35144D01*
X31635Y-35200D01*
X31503Y-35254D01*
X31355Y-35402D01*
X31275Y-35595D01*
X31274Y-35803D01*
X31354Y-35997D01*
X31502Y-36144D01*
X31635Y-36200D01*
X31503Y-36254D01*
X31355Y-36402D01*
X31275Y-36595D01*
X31274Y-36803D01*
X31354Y-36997D01*
X31502Y-37144D01*
X31635Y-37200D01*
X31503Y-37254D01*
X31355Y-37402D01*
X31275Y-37595D01*
X31274Y-37803D01*
X31354Y-37997D01*
X31502Y-38144D01*
X31635Y-38200D01*
X31503Y-38254D01*
X31355Y-38402D01*
X31275Y-38595D01*
X31274Y-38803D01*
X31354Y-38997D01*
X31502Y-39144D01*
X31635Y-39200D01*
X31503Y-39254D01*
X31355Y-39402D01*
X31275Y-39595D01*
X31274Y-39803D01*
X31354Y-39997D01*
X31502Y-40144D01*
X31635Y-40200D01*
X31503Y-40254D01*
X31355Y-40402D01*
X31275Y-40595D01*
X31274Y-40803D01*
X31354Y-40997D01*
X31502Y-41144D01*
X31635Y-41200D01*
X31503Y-41254D01*
X31355Y-41402D01*
X31275Y-41595D01*
X31274Y-41803D01*
X31354Y-41997D01*
X31502Y-42144D01*
X31635Y-42200D01*
X31503Y-42254D01*
X31355Y-42402D01*
X31275Y-42595D01*
X31274Y-42803D01*
X31354Y-42997D01*
X31502Y-43144D01*
X31574Y-43174D01*
X31475Y-43174D01*
X31383Y-43212D01*
X31313Y-43283D01*
X31275Y-43375D01*
X31274Y-43474D01*
X31274Y-44024D01*
X31312Y-44116D01*
X31383Y-44186D01*
X31475Y-44224D01*
X31574Y-44225D01*
X32124Y-44225D01*
X32216Y-44187D01*
X32286Y-44116D01*
X32324Y-44024D01*
X32325Y-43925D01*
X32325Y-43375D01*
X32287Y-43283D01*
X32216Y-43213D01*
X32124Y-43175D01*
X32025Y-43174D01*
X32025Y-43174D01*
X32097Y-43145D01*
X32244Y-42997D01*
X32324Y-42804D01*
X32325Y-42596D01*
X32245Y-42403D01*
X32097Y-42255D01*
X31964Y-42199D01*
X32097Y-42145D01*
X32244Y-41997D01*
X32324Y-41804D01*
X32324Y-41770D01*
X32647Y-41447D01*
X32723Y-41333D01*
X32723Y-41333D01*
X32750Y-41200D01*
X32750Y-31400D01*
X32750Y-30546D01*
X32771Y-30555D01*
X32990Y-30555D01*
X33192Y-30472D01*
X33347Y-30317D01*
X33381Y-30235D01*
X33414Y-30316D01*
X33531Y-30433D01*
X33531Y-31481D01*
X33557Y-31615D01*
X33633Y-31728D01*
X33652Y-31747D01*
X33766Y-31823D01*
X33900Y-31850D01*
X34033Y-31823D01*
X34147Y-31747D01*
X34223Y-31633D01*
X34250Y-31500D01*
X34231Y-31404D01*
X34231Y-30433D01*
X34347Y-30317D01*
X34381Y-30235D01*
X34414Y-30316D01*
X34569Y-30471D01*
X34771Y-30555D01*
X34990Y-30555D01*
X35192Y-30472D01*
X35347Y-30317D01*
X35381Y-30235D01*
X35414Y-30316D01*
X35569Y-30471D01*
X35771Y-30555D01*
X35990Y-30555D01*
X36192Y-30472D01*
X36347Y-30317D01*
X36381Y-30235D01*
X36414Y-30316D01*
X36569Y-30471D01*
X36771Y-30555D01*
X36990Y-30555D01*
X37192Y-30472D01*
X37347Y-30317D01*
X37378Y-30241D01*
X37399Y-30293D01*
X37495Y-30320D01*
X37810Y-30005D01*
X37804Y-29999D01*
X37875Y-29929D01*
X37881Y-29934D01*
X38196Y-29619D01*
X38168Y-29524D01*
X38113Y-29504D01*
X38192Y-29472D01*
X38347Y-29317D01*
X38431Y-29115D01*
X38431Y-28896D01*
X38347Y-28694D01*
X38193Y-28539D01*
X37990Y-28455D01*
X37772Y-28455D01*
X37569Y-28538D01*
X37415Y-28693D01*
X37381Y-28775D01*
X37347Y-28694D01*
X37193Y-28539D01*
X36990Y-28455D01*
X36772Y-28455D01*
X36569Y-28538D01*
X36415Y-28693D01*
X36381Y-28775D01*
X36347Y-28694D01*
X36193Y-28539D01*
X35990Y-28455D01*
X35772Y-28455D01*
X35569Y-28538D01*
X35415Y-28693D01*
X35383Y-28769D01*
X35362Y-28717D01*
X35267Y-28690D01*
X35196Y-28761D01*
X35196Y-28619D01*
X35168Y-28524D01*
X34962Y-28450D01*
X34744Y-28461D01*
X34593Y-28524D01*
X34565Y-28619D01*
X34881Y-28934D01*
X35196Y-28619D01*
X35196Y-28761D01*
X34951Y-29005D01*
X34957Y-29011D01*
X34886Y-29081D01*
X34881Y-29076D01*
X34875Y-29081D01*
X34804Y-29011D01*
X34810Y-29005D01*
X34495Y-28690D01*
X34399Y-28717D01*
X34380Y-28772D01*
X34347Y-28694D01*
X34193Y-28539D01*
X33990Y-28455D01*
X33772Y-28455D01*
X33569Y-28538D01*
X33415Y-28693D01*
X33381Y-28775D01*
X33347Y-28694D01*
X33193Y-28539D01*
X32990Y-28455D01*
X32772Y-28455D01*
X32569Y-28538D01*
X32415Y-28693D01*
X32383Y-28769D01*
X32362Y-28717D01*
X32267Y-28690D01*
X32196Y-28761D01*
X32196Y-28619D01*
X32168Y-28524D01*
X31962Y-28450D01*
X31744Y-28461D01*
X31593Y-28524D01*
X31565Y-28619D01*
X31881Y-28934D01*
X32196Y-28619D01*
X32196Y-28761D01*
X31951Y-29005D01*
X31957Y-29011D01*
X31886Y-29081D01*
X31881Y-29076D01*
X31875Y-29081D01*
X31804Y-29011D01*
X31810Y-29005D01*
X31495Y-28690D01*
X31399Y-28717D01*
X31380Y-28772D01*
X31347Y-28694D01*
X31193Y-28539D01*
X30990Y-28455D01*
X30772Y-28455D01*
X30569Y-28538D01*
X30415Y-28693D01*
X30381Y-28775D01*
X30347Y-28694D01*
X30193Y-28539D01*
X29990Y-28455D01*
X29772Y-28455D01*
X29569Y-28538D01*
X29415Y-28693D01*
X29381Y-28775D01*
X29347Y-28694D01*
X29193Y-28539D01*
X28990Y-28455D01*
X28772Y-28455D01*
X28569Y-28538D01*
X28415Y-28693D01*
X28383Y-28769D01*
X28362Y-28717D01*
X28267Y-28690D01*
X28196Y-28761D01*
X28196Y-28619D01*
X28168Y-28524D01*
X27962Y-28450D01*
X27744Y-28461D01*
X27593Y-28524D01*
X27565Y-28619D01*
X27881Y-28934D01*
X28196Y-28619D01*
X28196Y-28761D01*
X27951Y-29005D01*
X27957Y-29011D01*
X27886Y-29081D01*
X27881Y-29076D01*
X27875Y-29081D01*
X27804Y-29011D01*
X27810Y-29005D01*
X27495Y-28690D01*
X27399Y-28717D01*
X27380Y-28772D01*
X27347Y-28694D01*
X27250Y-28596D01*
X27250Y-28279D01*
X40520Y-28279D01*
X40520Y-44920D01*
X40520Y-44920D01*
G37*
G54D21*
X40520Y-44920D02*
X40013Y-44920D01*
X40013Y-35577D01*
X39500Y-34241D01*
X39395Y-34085D01*
X38983Y-33686D01*
X38913Y-33757D01*
X38913Y-33616D01*
X38514Y-33204D01*
X38435Y-33169D01*
X38435Y-30087D01*
X38424Y-29868D01*
X38362Y-29717D01*
X38267Y-29690D01*
X37951Y-30005D01*
X38267Y-30320D01*
X38362Y-30293D01*
X38435Y-30087D01*
X38435Y-33169D01*
X38196Y-33062D01*
X38196Y-30391D01*
X37881Y-30076D01*
X37565Y-30391D01*
X37593Y-30486D01*
X37799Y-30560D01*
X38017Y-30549D01*
X38168Y-30486D01*
X38196Y-30391D01*
X38196Y-33062D01*
X38175Y-33053D01*
X38175Y-31800D01*
X38146Y-31656D01*
X38065Y-31534D01*
X37943Y-31453D01*
X37800Y-31425D01*
X37634Y-31425D01*
X37634Y-31130D01*
X37596Y-31038D01*
X37526Y-30968D01*
X37434Y-30930D01*
X37334Y-30930D01*
X35366Y-30930D01*
X35274Y-30968D01*
X35203Y-31038D01*
X35165Y-31130D01*
X35165Y-31229D01*
X35165Y-31336D01*
X34988Y-31336D01*
X34844Y-31365D01*
X34723Y-31446D01*
X34434Y-31734D01*
X34353Y-31856D01*
X34325Y-32000D01*
X34353Y-32143D01*
X34434Y-32265D01*
X34556Y-32346D01*
X34700Y-32375D01*
X34843Y-32346D01*
X34965Y-32265D01*
X35143Y-32086D01*
X35165Y-32086D01*
X35165Y-32292D01*
X35203Y-32384D01*
X35273Y-32455D01*
X35365Y-32493D01*
X35465Y-32493D01*
X37433Y-32493D01*
X37525Y-32455D01*
X37596Y-32385D01*
X37634Y-32293D01*
X37634Y-32193D01*
X37634Y-32175D01*
X37800Y-32175D01*
X37943Y-32146D01*
X38065Y-32065D01*
X38146Y-31943D01*
X38175Y-31800D01*
X38175Y-33053D01*
X37207Y-32623D01*
X35777Y-32586D01*
X34441Y-33099D01*
X34285Y-33204D01*
X33886Y-33616D01*
X36400Y-36129D01*
X38913Y-33616D01*
X38913Y-33757D01*
X36470Y-36200D01*
X38983Y-38713D01*
X39395Y-38314D01*
X39976Y-37007D01*
X40013Y-35577D01*
X40013Y-44920D01*
X38913Y-44920D01*
X38913Y-38783D01*
X36400Y-36270D01*
X36329Y-36341D01*
X36329Y-36200D01*
X33816Y-33686D01*
X33404Y-34085D01*
X32823Y-35392D01*
X32786Y-36822D01*
X33299Y-38158D01*
X33404Y-38314D01*
X33816Y-38713D01*
X36329Y-36200D01*
X36329Y-36341D01*
X33886Y-38783D01*
X34285Y-39195D01*
X35592Y-39776D01*
X37022Y-39813D01*
X38358Y-39300D01*
X38514Y-39195D01*
X38913Y-38783D01*
X38913Y-44920D01*
X38174Y-44920D01*
X38174Y-40000D01*
X38146Y-39856D01*
X38065Y-39734D01*
X37943Y-39653D01*
X37800Y-39625D01*
X37656Y-39653D01*
X37534Y-39734D01*
X37362Y-39906D01*
X37334Y-39906D01*
X35366Y-39906D01*
X35274Y-39944D01*
X35203Y-40014D01*
X35165Y-40106D01*
X35165Y-40206D01*
X35165Y-41269D01*
X35203Y-41361D01*
X35273Y-41431D01*
X35365Y-41469D01*
X35465Y-41469D01*
X37433Y-41469D01*
X37525Y-41431D01*
X37596Y-41361D01*
X37634Y-41269D01*
X37634Y-41170D01*
X37634Y-40696D01*
X38065Y-40265D01*
X38146Y-40143D01*
X38174Y-40000D01*
X38174Y-44920D01*
X36150Y-44920D01*
X36150Y-42692D01*
X35990Y-42306D01*
X35695Y-42010D01*
X35309Y-41850D01*
X34892Y-41849D01*
X34506Y-42009D01*
X34210Y-42304D01*
X34050Y-42690D01*
X34049Y-43107D01*
X34209Y-43494D01*
X34504Y-43789D01*
X34890Y-43949D01*
X35307Y-43950D01*
X35694Y-43790D01*
X35989Y-43495D01*
X36149Y-43109D01*
X36150Y-42692D01*
X36150Y-44920D01*
X30196Y-44920D01*
X30196Y-30391D01*
X29881Y-30076D01*
X29565Y-30391D01*
X29593Y-30486D01*
X29799Y-30560D01*
X30017Y-30549D01*
X30168Y-30486D01*
X30196Y-30391D01*
X30196Y-44920D01*
X27754Y-44920D01*
X27754Y-31181D01*
X27743Y-30963D01*
X27681Y-30812D01*
X27585Y-30784D01*
X27270Y-31100D01*
X27585Y-31415D01*
X27681Y-31387D01*
X27754Y-31181D01*
X27754Y-44920D01*
X27515Y-44920D01*
X27515Y-31485D01*
X27200Y-31170D01*
X26884Y-31485D01*
X26912Y-31581D01*
X27118Y-31654D01*
X27336Y-31643D01*
X27487Y-31581D01*
X27515Y-31485D01*
X27515Y-44920D01*
X26329Y-44920D01*
X26329Y-40775D01*
X26318Y-40567D01*
X26260Y-40427D01*
X26167Y-40402D01*
X25870Y-40700D01*
X26167Y-40997D01*
X26260Y-40972D01*
X26329Y-40775D01*
X26329Y-44920D01*
X25279Y-44920D01*
X25279Y-44250D01*
X25800Y-44250D01*
X25781Y-44224D01*
X25903Y-44225D01*
X26097Y-44145D01*
X26244Y-43997D01*
X26324Y-43804D01*
X26325Y-43596D01*
X26245Y-43403D01*
X26097Y-43255D01*
X25964Y-43199D01*
X26097Y-43145D01*
X26244Y-42997D01*
X26324Y-42804D01*
X26325Y-42596D01*
X26245Y-42403D01*
X26097Y-42255D01*
X25964Y-42199D01*
X26097Y-42145D01*
X26244Y-41997D01*
X26324Y-41804D01*
X26325Y-41596D01*
X26245Y-41403D01*
X26097Y-41255D01*
X25971Y-41202D01*
X26072Y-41160D01*
X26097Y-41067D01*
X25800Y-40770D01*
X25794Y-40776D01*
X25723Y-40705D01*
X25729Y-40700D01*
X25723Y-40694D01*
X25794Y-40623D01*
X25800Y-40629D01*
X26097Y-40332D01*
X26072Y-40239D01*
X25962Y-40200D01*
X26097Y-40145D01*
X26244Y-39997D01*
X26324Y-39804D01*
X26325Y-39596D01*
X26245Y-39403D01*
X26097Y-39255D01*
X25964Y-39199D01*
X26097Y-39145D01*
X26244Y-38997D01*
X26324Y-38804D01*
X26325Y-38596D01*
X26245Y-38403D01*
X26097Y-38255D01*
X25964Y-38199D01*
X26097Y-38145D01*
X26244Y-37997D01*
X26324Y-37804D01*
X26325Y-37596D01*
X26245Y-37403D01*
X26097Y-37255D01*
X25964Y-37199D01*
X26097Y-37145D01*
X26244Y-36997D01*
X26324Y-36804D01*
X26325Y-36596D01*
X26245Y-36403D01*
X26097Y-36255D01*
X25964Y-36199D01*
X26097Y-36145D01*
X26244Y-35997D01*
X26324Y-35804D01*
X26325Y-35596D01*
X26245Y-35403D01*
X26097Y-35255D01*
X25964Y-35199D01*
X26097Y-35145D01*
X26244Y-34997D01*
X26324Y-34804D01*
X26325Y-34596D01*
X26245Y-34403D01*
X26097Y-34255D01*
X25964Y-34199D01*
X26097Y-34145D01*
X26192Y-34050D01*
X26300Y-34050D01*
X26433Y-34023D01*
X26433Y-34023D01*
X26547Y-33947D01*
X26747Y-33747D01*
X26823Y-33633D01*
X26850Y-33500D01*
X26850Y-32400D01*
X26850Y-31800D01*
X26823Y-31666D01*
X26747Y-31552D01*
X26719Y-31524D01*
X26749Y-31449D01*
X26750Y-31396D01*
X26814Y-31415D01*
X27129Y-31100D01*
X27123Y-31094D01*
X27194Y-31023D01*
X27200Y-31029D01*
X27515Y-30714D01*
X27487Y-30618D01*
X27461Y-30609D01*
X27590Y-30480D01*
X27771Y-30555D01*
X27990Y-30555D01*
X28192Y-30472D01*
X28347Y-30317D01*
X28381Y-30235D01*
X28414Y-30316D01*
X28569Y-30471D01*
X28771Y-30555D01*
X28990Y-30555D01*
X29192Y-30472D01*
X29347Y-30317D01*
X29378Y-30241D01*
X29399Y-30293D01*
X29495Y-30320D01*
X29810Y-30005D01*
X29804Y-29999D01*
X29875Y-29929D01*
X29881Y-29934D01*
X29886Y-29929D01*
X29957Y-29999D01*
X29951Y-30005D01*
X30267Y-30320D01*
X30362Y-30293D01*
X30382Y-30238D01*
X30414Y-30316D01*
X30569Y-30471D01*
X30771Y-30555D01*
X30990Y-30555D01*
X31050Y-30530D01*
X31050Y-30800D01*
X31076Y-30933D01*
X31152Y-31047D01*
X31450Y-31344D01*
X31450Y-32307D01*
X31355Y-32402D01*
X31275Y-32595D01*
X31274Y-32803D01*
X31354Y-32997D01*
X31502Y-33144D01*
X31635Y-33200D01*
X31503Y-33254D01*
X31355Y-33402D01*
X31275Y-33595D01*
X31274Y-33803D01*
X31354Y-33997D01*
X31502Y-34144D01*
X31635Y-34200D01*
X31503Y-34254D01*
X31355Y-34402D01*
X31275Y-34595D01*
X31274Y-34803D01*
X31354Y-34997D01*
X31502Y-35144D01*
X31635Y-35200D01*
X31503Y-35254D01*
X31355Y-35402D01*
X31275Y-35595D01*
X31274Y-35803D01*
X31354Y-35997D01*
X31502Y-36144D01*
X31635Y-36200D01*
X31503Y-36254D01*
X31355Y-36402D01*
X31275Y-36595D01*
X31274Y-36803D01*
X31354Y-36997D01*
X31502Y-37144D01*
X31635Y-37200D01*
X31503Y-37254D01*
X31355Y-37402D01*
X31275Y-37595D01*
X31274Y-37803D01*
X31354Y-37997D01*
X31502Y-38144D01*
X31635Y-38200D01*
X31503Y-38254D01*
X31355Y-38402D01*
X31275Y-38595D01*
X31274Y-38803D01*
X31354Y-38997D01*
X31502Y-39144D01*
X31635Y-39200D01*
X31503Y-39254D01*
X31355Y-39402D01*
X31275Y-39595D01*
X31274Y-39803D01*
X31354Y-39997D01*
X31502Y-40144D01*
X31635Y-40200D01*
X31503Y-40254D01*
X31355Y-40402D01*
X31275Y-40595D01*
X31274Y-40803D01*
X31354Y-40997D01*
X31502Y-41144D01*
X31635Y-41200D01*
X31503Y-41254D01*
X31355Y-41402D01*
X31275Y-41595D01*
X31274Y-41803D01*
X31354Y-41997D01*
X31502Y-42144D01*
X31635Y-42200D01*
X31503Y-42254D01*
X31355Y-42402D01*
X31275Y-42595D01*
X31274Y-42803D01*
X31354Y-42997D01*
X31502Y-43144D01*
X31574Y-43174D01*
X31475Y-43174D01*
X31383Y-43212D01*
X31313Y-43283D01*
X31275Y-43375D01*
X31274Y-43474D01*
X31274Y-44024D01*
X31312Y-44116D01*
X31383Y-44186D01*
X31475Y-44224D01*
X31574Y-44225D01*
X32124Y-44225D01*
X32216Y-44187D01*
X32286Y-44116D01*
X32324Y-44024D01*
X32325Y-43925D01*
X32325Y-43375D01*
X32287Y-43283D01*
X32216Y-43213D01*
X32124Y-43175D01*
X32025Y-43174D01*
X32025Y-43174D01*
X32097Y-43145D01*
X32244Y-42997D01*
X32324Y-42804D01*
X32325Y-42596D01*
X32245Y-42403D01*
X32097Y-42255D01*
X31964Y-42199D01*
X32097Y-42145D01*
X32244Y-41997D01*
X32324Y-41804D01*
X32324Y-41770D01*
X32647Y-41447D01*
X32723Y-41333D01*
X32723Y-41333D01*
X32750Y-41200D01*
X32750Y-31400D01*
X32750Y-30546D01*
X32771Y-30555D01*
X32990Y-30555D01*
X33192Y-30472D01*
X33347Y-30317D01*
X33381Y-30235D01*
X33414Y-30316D01*
X33531Y-30433D01*
X33531Y-31481D01*
X33557Y-31615D01*
X33633Y-31728D01*
X33652Y-31747D01*
X33766Y-31823D01*
X33900Y-31850D01*
X34033Y-31823D01*
X34147Y-31747D01*
X34223Y-31633D01*
X34250Y-31500D01*
X34231Y-31404D01*
X34231Y-30433D01*
X34347Y-30317D01*
X34381Y-30235D01*
X34414Y-30316D01*
X34569Y-30471D01*
X34771Y-30555D01*
X34990Y-30555D01*
X35192Y-30472D01*
X35347Y-30317D01*
X35381Y-30235D01*
X35414Y-30316D01*
X35569Y-30471D01*
X35771Y-30555D01*
X35990Y-30555D01*
X36192Y-30472D01*
X36347Y-30317D01*
X36381Y-30235D01*
X36414Y-30316D01*
X36569Y-30471D01*
X36771Y-30555D01*
X36990Y-30555D01*
X37192Y-30472D01*
X37347Y-30317D01*
X37378Y-30241D01*
X37399Y-30293D01*
X37495Y-30320D01*
X37810Y-30005D01*
X37804Y-29999D01*
X37875Y-29929D01*
X37881Y-29934D01*
X38196Y-29619D01*
X38168Y-29524D01*
X38113Y-29504D01*
X38192Y-29472D01*
X38347Y-29317D01*
X38431Y-29115D01*
X38431Y-28896D01*
X38347Y-28694D01*
X38193Y-28539D01*
X37990Y-28455D01*
X37772Y-28455D01*
X37569Y-28538D01*
X37415Y-28693D01*
X37381Y-28775D01*
X37347Y-28694D01*
X37193Y-28539D01*
X36990Y-28455D01*
X36772Y-28455D01*
X36569Y-28538D01*
X36415Y-28693D01*
X36381Y-28775D01*
X36347Y-28694D01*
X36193Y-28539D01*
X35990Y-28455D01*
X35772Y-28455D01*
X35569Y-28538D01*
X35415Y-28693D01*
X35383Y-28769D01*
X35362Y-28717D01*
X35267Y-28690D01*
X35196Y-28761D01*
X35196Y-28619D01*
X35168Y-28524D01*
X34962Y-28450D01*
X34744Y-28461D01*
X34593Y-28524D01*
X34565Y-28619D01*
X34881Y-28934D01*
X35196Y-28619D01*
X35196Y-28761D01*
X34951Y-29005D01*
X34957Y-29011D01*
X34886Y-29081D01*
X34881Y-29076D01*
X34875Y-29081D01*
X34804Y-29011D01*
X34810Y-29005D01*
X34495Y-28690D01*
X34399Y-28717D01*
X34380Y-28772D01*
X34347Y-28694D01*
X34193Y-28539D01*
X33990Y-28455D01*
X33772Y-28455D01*
X33569Y-28538D01*
X33415Y-28693D01*
X33381Y-28775D01*
X33347Y-28694D01*
X33193Y-28539D01*
X32990Y-28455D01*
X32772Y-28455D01*
X32569Y-28538D01*
X32415Y-28693D01*
X32383Y-28769D01*
X32362Y-28717D01*
X32267Y-28690D01*
X32196Y-28761D01*
X32196Y-28619D01*
X32168Y-28524D01*
X31962Y-28450D01*
X31744Y-28461D01*
X31593Y-28524D01*
X31565Y-28619D01*
X31881Y-28934D01*
X32196Y-28619D01*
X32196Y-28761D01*
X31951Y-29005D01*
X31957Y-29011D01*
X31886Y-29081D01*
X31881Y-29076D01*
X31875Y-29081D01*
X31804Y-29011D01*
X31810Y-29005D01*
X31495Y-28690D01*
X31399Y-28717D01*
X31380Y-28772D01*
X31347Y-28694D01*
X31193Y-28539D01*
X30990Y-28455D01*
X30772Y-28455D01*
X30569Y-28538D01*
X30415Y-28693D01*
X30381Y-28775D01*
X30347Y-28694D01*
X30193Y-28539D01*
X29990Y-28455D01*
X29772Y-28455D01*
X29569Y-28538D01*
X29415Y-28693D01*
X29381Y-28775D01*
X29347Y-28694D01*
X29193Y-28539D01*
X28990Y-28455D01*
X28772Y-28455D01*
X28569Y-28538D01*
X28415Y-28693D01*
X28383Y-28769D01*
X28362Y-28717D01*
X28267Y-28690D01*
X28196Y-28761D01*
X28196Y-28619D01*
X28168Y-28524D01*
X27962Y-28450D01*
X27744Y-28461D01*
X27593Y-28524D01*
X27565Y-28619D01*
X27881Y-28934D01*
X28196Y-28619D01*
X28196Y-28761D01*
X27951Y-29005D01*
X27957Y-29011D01*
X27886Y-29081D01*
X27881Y-29076D01*
X27875Y-29081D01*
X27804Y-29011D01*
X27810Y-29005D01*
X27495Y-28690D01*
X27399Y-28717D01*
X27380Y-28772D01*
X27347Y-28694D01*
X27250Y-28596D01*
X27250Y-28279D01*
X40520Y-28279D01*
X40520Y-44920D01*
M02*
