M48
INCH,TZ
T1C0.013
T2C0.032
T3C0.040
T4C0.120
%
G90
G05
T1
X33900Y-31500
X34700Y-32000
X37800Y-31800
X37800Y-40000
T2
X25800Y-32700
X25800Y-33700
X25800Y-34700
X25800Y-35700
X25800Y-36700
X25800Y-37700
X25800Y-38700
X25800Y-39700
X25800Y-40700
X25800Y-41700
X25800Y-42700
X25800Y-43700
X31800Y-32700
X31800Y-33700
X31800Y-34700
X31800Y-35700
X31800Y-36700
X31800Y-37700
X31800Y-38700
X31800Y-39700
X31800Y-40700
X31800Y-41700
X31800Y-42700
X31800Y-43700
T3
X25881Y-29006
X25881Y-30006
X26200Y-31100
X26881Y-29006
X26881Y-30006
X27200Y-31100
X27881Y-29006
X27881Y-30006
X28881Y-29006
X28881Y-30006
X29881Y-29006
X29881Y-30006
X30881Y-29006
X30881Y-30006
X31881Y-29006
X31881Y-30006
X32881Y-29006
X32881Y-30006
X33881Y-29006
X33881Y-30006
X34881Y-29006
X34881Y-30006
X35881Y-29006
X35881Y-30006
X36881Y-29006
X36881Y-30006
X37881Y-29006
X37881Y-30006
T4
X35100Y-42900
T0
M30
