G04 (created by PCBNEW (2013-may-18)-stable) date Sun 22 Jun 2014 12:37:11 AM EDT*
%MOIN*%
G04 Gerber Fmt 3.4, Leading zero omitted, Abs format*
%FSLAX34Y34*%
G01*
G70*
G90*
G04 APERTURE LIST*
%ADD10C,0.00590551*%
%ADD11C,0.00295276*%
%ADD12C,0.00246063*%
%ADD13C,0.00787402*%
%ADD14C,0.0001*%
%ADD15C,0.0047*%
%ADD16C,0.005*%
%ADD17C,0.0045*%
%ADD18C,0.008*%
G04 APERTURE END LIST*
G54D10*
G54D11*
X36727Y-35659D02*
X36727Y-35265D01*
X36634Y-35265D01*
X36577Y-35284D01*
X36540Y-35321D01*
X36521Y-35359D01*
X36502Y-35434D01*
X36502Y-35490D01*
X36521Y-35565D01*
X36540Y-35603D01*
X36577Y-35640D01*
X36634Y-35659D01*
X36727Y-35659D01*
X36353Y-35640D02*
X36296Y-35659D01*
X36203Y-35659D01*
X36165Y-35640D01*
X36146Y-35621D01*
X36128Y-35584D01*
X36128Y-35546D01*
X36146Y-35509D01*
X36165Y-35490D01*
X36203Y-35471D01*
X36278Y-35453D01*
X36315Y-35434D01*
X36334Y-35415D01*
X36353Y-35378D01*
X36353Y-35340D01*
X36334Y-35303D01*
X36315Y-35284D01*
X36278Y-35265D01*
X36184Y-35265D01*
X36128Y-35284D01*
X35996Y-35265D02*
X35753Y-35265D01*
X35884Y-35415D01*
X35828Y-35415D01*
X35790Y-35434D01*
X35771Y-35453D01*
X35753Y-35490D01*
X35753Y-35584D01*
X35771Y-35621D01*
X35790Y-35640D01*
X35828Y-35659D01*
X35940Y-35659D01*
X35978Y-35640D01*
X35996Y-35621D01*
X35603Y-35303D02*
X35584Y-35284D01*
X35546Y-35265D01*
X35453Y-35265D01*
X35415Y-35284D01*
X35396Y-35303D01*
X35378Y-35340D01*
X35378Y-35378D01*
X35396Y-35434D01*
X35621Y-35659D01*
X35378Y-35659D01*
X35246Y-35265D02*
X35003Y-35265D01*
X35134Y-35415D01*
X35078Y-35415D01*
X35040Y-35434D01*
X35021Y-35453D01*
X35003Y-35490D01*
X35003Y-35584D01*
X35021Y-35621D01*
X35040Y-35640D01*
X35078Y-35659D01*
X35190Y-35659D01*
X35228Y-35640D01*
X35246Y-35621D01*
X34628Y-35659D02*
X34853Y-35659D01*
X34740Y-35659D02*
X34740Y-35265D01*
X34778Y-35321D01*
X34815Y-35359D01*
X34853Y-35378D01*
X34478Y-35640D02*
X34422Y-35659D01*
X34328Y-35659D01*
X34290Y-35640D01*
X34272Y-35621D01*
X34253Y-35584D01*
X34253Y-35546D01*
X34272Y-35509D01*
X34290Y-35490D01*
X34328Y-35471D01*
X34403Y-35453D01*
X34440Y-35434D01*
X34459Y-35415D01*
X34478Y-35378D01*
X34478Y-35340D01*
X34459Y-35303D01*
X34440Y-35284D01*
X34403Y-35265D01*
X34309Y-35265D01*
X34253Y-35284D01*
X34487Y-31956D02*
X34464Y-31963D01*
X34427Y-31963D01*
X34412Y-31956D01*
X34404Y-31948D01*
X34397Y-31933D01*
X34397Y-31918D01*
X34404Y-31903D01*
X34412Y-31896D01*
X34427Y-31888D01*
X34457Y-31881D01*
X34472Y-31873D01*
X34479Y-31866D01*
X34487Y-31851D01*
X34487Y-31836D01*
X34479Y-31821D01*
X34472Y-31813D01*
X34457Y-31806D01*
X34419Y-31806D01*
X34397Y-31813D01*
X34240Y-31948D02*
X34247Y-31956D01*
X34270Y-31963D01*
X34285Y-31963D01*
X34307Y-31956D01*
X34322Y-31941D01*
X34329Y-31926D01*
X34337Y-31896D01*
X34337Y-31873D01*
X34329Y-31843D01*
X34322Y-31828D01*
X34307Y-31813D01*
X34285Y-31806D01*
X34270Y-31806D01*
X34247Y-31813D01*
X34240Y-31821D01*
X34097Y-31963D02*
X34172Y-31963D01*
X34172Y-31806D01*
X33591Y-32256D02*
X33568Y-32263D01*
X33531Y-32263D01*
X33516Y-32256D01*
X33508Y-32248D01*
X33501Y-32233D01*
X33501Y-32218D01*
X33508Y-32203D01*
X33516Y-32196D01*
X33531Y-32188D01*
X33561Y-32181D01*
X33576Y-32173D01*
X33583Y-32166D01*
X33591Y-32151D01*
X33591Y-32136D01*
X33583Y-32121D01*
X33576Y-32113D01*
X33561Y-32106D01*
X33523Y-32106D01*
X33501Y-32113D01*
X33433Y-32263D02*
X33433Y-32106D01*
X33396Y-32106D01*
X33373Y-32113D01*
X33358Y-32128D01*
X33351Y-32143D01*
X33343Y-32173D01*
X33343Y-32196D01*
X33351Y-32226D01*
X33358Y-32241D01*
X33373Y-32256D01*
X33396Y-32263D01*
X33433Y-32263D01*
X33283Y-32218D02*
X33208Y-32218D01*
X33298Y-32263D02*
X33246Y-32106D01*
X33193Y-32263D01*
G54D12*
X34377Y-32463D02*
X34377Y-32358D01*
X34377Y-32306D02*
X34384Y-32313D01*
X34377Y-32321D01*
X34369Y-32313D01*
X34377Y-32306D01*
X34377Y-32321D01*
X34309Y-32321D02*
X34302Y-32313D01*
X34287Y-32306D01*
X34249Y-32306D01*
X34234Y-32313D01*
X34227Y-32321D01*
X34219Y-32336D01*
X34219Y-32351D01*
X34227Y-32373D01*
X34317Y-32463D01*
X34219Y-32463D01*
X34084Y-32456D02*
X34099Y-32463D01*
X34129Y-32463D01*
X34144Y-32456D01*
X34152Y-32448D01*
X34159Y-32433D01*
X34159Y-32388D01*
X34152Y-32373D01*
X34144Y-32366D01*
X34129Y-32358D01*
X34099Y-32358D01*
X34084Y-32366D01*
X33897Y-32463D02*
X33897Y-32306D01*
X33837Y-32306D01*
X33822Y-32313D01*
X33814Y-32321D01*
X33807Y-32336D01*
X33807Y-32358D01*
X33814Y-32373D01*
X33822Y-32381D01*
X33837Y-32388D01*
X33897Y-32388D01*
X33672Y-32358D02*
X33672Y-32463D01*
X33740Y-32358D02*
X33740Y-32441D01*
X33732Y-32456D01*
X33717Y-32463D01*
X33695Y-32463D01*
X33680Y-32456D01*
X33672Y-32448D01*
X33575Y-32463D02*
X33590Y-32456D01*
X33597Y-32441D01*
X33597Y-32306D01*
X33492Y-32463D02*
X33507Y-32456D01*
X33515Y-32441D01*
X33515Y-32306D01*
X33365Y-32358D02*
X33365Y-32463D01*
X33432Y-32358D02*
X33432Y-32441D01*
X33425Y-32456D01*
X33410Y-32463D01*
X33387Y-32463D01*
X33372Y-32456D01*
X33365Y-32448D01*
X33290Y-32358D02*
X33290Y-32516D01*
X33290Y-32366D02*
X33275Y-32358D01*
X33245Y-32358D01*
X33230Y-32366D01*
X33222Y-32373D01*
X33215Y-32388D01*
X33215Y-32433D01*
X33222Y-32448D01*
X33230Y-32456D01*
X33245Y-32463D01*
X33275Y-32463D01*
X33290Y-32456D01*
X34212Y-32708D02*
X34264Y-32633D01*
X34302Y-32708D02*
X34302Y-32551D01*
X34242Y-32551D01*
X34227Y-32558D01*
X34219Y-32566D01*
X34212Y-32581D01*
X34212Y-32603D01*
X34219Y-32618D01*
X34227Y-32626D01*
X34242Y-32633D01*
X34302Y-32633D01*
X34084Y-32701D02*
X34099Y-32708D01*
X34129Y-32708D01*
X34144Y-32701D01*
X34152Y-32686D01*
X34152Y-32626D01*
X34144Y-32611D01*
X34129Y-32603D01*
X34099Y-32603D01*
X34084Y-32611D01*
X34077Y-32626D01*
X34077Y-32641D01*
X34152Y-32656D01*
X34017Y-32701D02*
X34002Y-32708D01*
X33972Y-32708D01*
X33957Y-32701D01*
X33949Y-32686D01*
X33949Y-32678D01*
X33957Y-32663D01*
X33972Y-32656D01*
X33994Y-32656D01*
X34009Y-32648D01*
X34017Y-32633D01*
X34017Y-32626D01*
X34009Y-32611D01*
X33994Y-32603D01*
X33972Y-32603D01*
X33957Y-32611D01*
X33882Y-32708D02*
X33882Y-32603D01*
X33882Y-32551D02*
X33889Y-32558D01*
X33882Y-32566D01*
X33874Y-32558D01*
X33882Y-32551D01*
X33882Y-32566D01*
X33814Y-32701D02*
X33800Y-32708D01*
X33770Y-32708D01*
X33755Y-32701D01*
X33747Y-32686D01*
X33747Y-32678D01*
X33755Y-32663D01*
X33770Y-32656D01*
X33792Y-32656D01*
X33807Y-32648D01*
X33814Y-32633D01*
X33814Y-32626D01*
X33807Y-32611D01*
X33792Y-32603D01*
X33770Y-32603D01*
X33755Y-32611D01*
X33702Y-32603D02*
X33642Y-32603D01*
X33680Y-32551D02*
X33680Y-32686D01*
X33672Y-32701D01*
X33657Y-32708D01*
X33642Y-32708D01*
X33567Y-32708D02*
X33582Y-32701D01*
X33590Y-32693D01*
X33597Y-32678D01*
X33597Y-32633D01*
X33590Y-32618D01*
X33582Y-32611D01*
X33567Y-32603D01*
X33545Y-32603D01*
X33530Y-32611D01*
X33522Y-32618D01*
X33515Y-32633D01*
X33515Y-32678D01*
X33522Y-32693D01*
X33530Y-32701D01*
X33545Y-32708D01*
X33567Y-32708D01*
X33447Y-32708D02*
X33447Y-32603D01*
X33447Y-32633D02*
X33440Y-32618D01*
X33432Y-32611D01*
X33417Y-32603D01*
X33402Y-32603D01*
X33357Y-32701D02*
X33342Y-32708D01*
X33312Y-32708D01*
X33297Y-32701D01*
X33290Y-32686D01*
X33290Y-32678D01*
X33297Y-32663D01*
X33312Y-32656D01*
X33335Y-32656D01*
X33350Y-32648D01*
X33357Y-32633D01*
X33357Y-32626D01*
X33350Y-32611D01*
X33335Y-32603D01*
X33312Y-32603D01*
X33297Y-32611D01*
X34542Y-32796D02*
X34444Y-32796D01*
X34497Y-32856D01*
X34474Y-32856D01*
X34459Y-32863D01*
X34452Y-32871D01*
X34444Y-32886D01*
X34444Y-32923D01*
X34452Y-32938D01*
X34459Y-32946D01*
X34474Y-32953D01*
X34519Y-32953D01*
X34534Y-32946D01*
X34542Y-32938D01*
X34377Y-32938D02*
X34369Y-32946D01*
X34377Y-32953D01*
X34384Y-32946D01*
X34377Y-32938D01*
X34377Y-32953D01*
X34317Y-32796D02*
X34219Y-32796D01*
X34272Y-32856D01*
X34249Y-32856D01*
X34234Y-32863D01*
X34227Y-32871D01*
X34219Y-32886D01*
X34219Y-32923D01*
X34227Y-32938D01*
X34234Y-32946D01*
X34249Y-32953D01*
X34294Y-32953D01*
X34309Y-32946D01*
X34317Y-32938D01*
X34167Y-32848D02*
X34129Y-32953D01*
X34092Y-32848D01*
X33912Y-32893D02*
X33792Y-32893D01*
X33567Y-32796D02*
X33552Y-32796D01*
X33537Y-32803D01*
X33530Y-32811D01*
X33522Y-32826D01*
X33515Y-32856D01*
X33515Y-32893D01*
X33522Y-32923D01*
X33530Y-32938D01*
X33537Y-32946D01*
X33552Y-32953D01*
X33567Y-32953D01*
X33582Y-32946D01*
X33590Y-32938D01*
X33597Y-32923D01*
X33605Y-32893D01*
X33605Y-32856D01*
X33597Y-32826D01*
X33590Y-32811D01*
X33582Y-32803D01*
X33567Y-32796D01*
X33380Y-32796D02*
X33410Y-32796D01*
X33425Y-32803D01*
X33432Y-32811D01*
X33447Y-32833D01*
X33455Y-32863D01*
X33455Y-32923D01*
X33447Y-32938D01*
X33440Y-32946D01*
X33425Y-32953D01*
X33395Y-32953D01*
X33380Y-32946D01*
X33372Y-32938D01*
X33365Y-32923D01*
X33365Y-32886D01*
X33372Y-32871D01*
X33380Y-32863D01*
X33395Y-32856D01*
X33425Y-32856D01*
X33440Y-32863D01*
X33447Y-32871D01*
X33455Y-32886D01*
X33267Y-32796D02*
X33252Y-32796D01*
X33237Y-32803D01*
X33230Y-32811D01*
X33222Y-32826D01*
X33215Y-32856D01*
X33215Y-32893D01*
X33222Y-32923D01*
X33230Y-32938D01*
X33237Y-32946D01*
X33252Y-32953D01*
X33267Y-32953D01*
X33282Y-32946D01*
X33290Y-32938D01*
X33297Y-32923D01*
X33305Y-32893D01*
X33305Y-32856D01*
X33297Y-32826D01*
X33290Y-32811D01*
X33282Y-32803D01*
X33267Y-32796D01*
X33162Y-32796D02*
X33065Y-32796D01*
X33117Y-32856D01*
X33095Y-32856D01*
X33080Y-32863D01*
X33072Y-32871D01*
X33065Y-32886D01*
X33065Y-32923D01*
X33072Y-32938D01*
X33080Y-32946D01*
X33095Y-32953D01*
X33140Y-32953D01*
X33155Y-32946D01*
X33162Y-32938D01*
G54D13*
X29940Y-43040D02*
X30334Y-43040D01*
X29940Y-42815D01*
X30334Y-42815D01*
X29940Y-42458D02*
X30146Y-42458D01*
X30184Y-42477D01*
X30203Y-42515D01*
X30203Y-42590D01*
X30184Y-42627D01*
X29959Y-42458D02*
X29940Y-42496D01*
X29940Y-42590D01*
X29959Y-42627D01*
X29996Y-42646D01*
X30034Y-42646D01*
X30071Y-42627D01*
X30090Y-42590D01*
X30090Y-42496D01*
X30109Y-42458D01*
X30203Y-42308D02*
X29940Y-42215D01*
X30203Y-42121D01*
X29959Y-41990D02*
X29940Y-41933D01*
X29940Y-41840D01*
X29959Y-41802D01*
X29978Y-41783D01*
X30015Y-41765D01*
X30053Y-41765D01*
X30090Y-41783D01*
X30109Y-41802D01*
X30128Y-41840D01*
X30146Y-41915D01*
X30165Y-41952D01*
X30184Y-41971D01*
X30221Y-41990D01*
X30259Y-41990D01*
X30296Y-41971D01*
X30315Y-41952D01*
X30334Y-41915D01*
X30334Y-41821D01*
X30315Y-41765D01*
X30203Y-41596D02*
X29809Y-41596D01*
X30184Y-41596D02*
X30203Y-41558D01*
X30203Y-41483D01*
X30184Y-41446D01*
X30165Y-41427D01*
X30128Y-41408D01*
X30015Y-41408D01*
X29978Y-41427D01*
X29959Y-41446D01*
X29940Y-41483D01*
X29940Y-41558D01*
X29959Y-41596D01*
X29940Y-41071D02*
X30146Y-41071D01*
X30184Y-41090D01*
X30203Y-41127D01*
X30203Y-41202D01*
X30184Y-41240D01*
X29959Y-41071D02*
X29940Y-41109D01*
X29940Y-41202D01*
X29959Y-41240D01*
X29996Y-41259D01*
X30034Y-41259D01*
X30071Y-41240D01*
X30090Y-41202D01*
X30090Y-41109D01*
X30109Y-41071D01*
X29940Y-40884D02*
X30203Y-40884D01*
X30128Y-40884D02*
X30165Y-40865D01*
X30184Y-40846D01*
X30203Y-40809D01*
X30203Y-40771D01*
X29940Y-40640D02*
X30334Y-40640D01*
X30090Y-40602D02*
X29940Y-40490D01*
X30203Y-40490D02*
X30053Y-40640D01*
X30090Y-40321D02*
X30090Y-40021D01*
X29940Y-40171D02*
X30240Y-40171D01*
X29940Y-39609D02*
X30128Y-39740D01*
X29940Y-39834D02*
X30334Y-39834D01*
X30334Y-39684D01*
X30315Y-39646D01*
X30296Y-39627D01*
X30259Y-39609D01*
X30203Y-39609D01*
X30165Y-39627D01*
X30146Y-39646D01*
X30128Y-39684D01*
X30128Y-39834D01*
X30334Y-39496D02*
X30334Y-39271D01*
X29940Y-39384D02*
X30334Y-39384D01*
X29978Y-38915D02*
X29959Y-38934D01*
X29940Y-38990D01*
X29940Y-39028D01*
X29959Y-39084D01*
X29996Y-39121D01*
X30034Y-39140D01*
X30109Y-39159D01*
X30165Y-39159D01*
X30240Y-39140D01*
X30278Y-39121D01*
X30315Y-39084D01*
X30334Y-39028D01*
X30334Y-38990D01*
X30315Y-38934D01*
X30296Y-38915D01*
X30090Y-38446D02*
X30090Y-38146D01*
X29940Y-37434D02*
X30128Y-37565D01*
X29940Y-37659D02*
X30334Y-37659D01*
X30334Y-37509D01*
X30315Y-37471D01*
X30296Y-37453D01*
X30259Y-37434D01*
X30203Y-37434D01*
X30165Y-37453D01*
X30146Y-37471D01*
X30128Y-37509D01*
X30128Y-37659D01*
X29940Y-37097D02*
X30146Y-37097D01*
X30184Y-37115D01*
X30203Y-37153D01*
X30203Y-37228D01*
X30184Y-37265D01*
X29959Y-37097D02*
X29940Y-37134D01*
X29940Y-37228D01*
X29959Y-37265D01*
X29996Y-37284D01*
X30034Y-37284D01*
X30071Y-37265D01*
X30090Y-37228D01*
X30090Y-37134D01*
X30109Y-37097D01*
X29959Y-36928D02*
X29940Y-36890D01*
X29940Y-36815D01*
X29959Y-36778D01*
X29996Y-36759D01*
X30015Y-36759D01*
X30053Y-36778D01*
X30071Y-36815D01*
X30071Y-36872D01*
X30090Y-36909D01*
X30128Y-36928D01*
X30146Y-36928D01*
X30184Y-36909D01*
X30203Y-36872D01*
X30203Y-36815D01*
X30184Y-36778D01*
X30203Y-36590D02*
X29809Y-36590D01*
X30184Y-36590D02*
X30203Y-36553D01*
X30203Y-36478D01*
X30184Y-36440D01*
X30165Y-36422D01*
X30128Y-36403D01*
X30015Y-36403D01*
X29978Y-36422D01*
X29959Y-36440D01*
X29940Y-36478D01*
X29940Y-36553D01*
X29959Y-36590D01*
X29940Y-36234D02*
X30334Y-36234D01*
X30184Y-36234D02*
X30203Y-36197D01*
X30203Y-36122D01*
X30184Y-36084D01*
X30165Y-36065D01*
X30128Y-36047D01*
X30015Y-36047D01*
X29978Y-36065D01*
X29959Y-36084D01*
X29940Y-36122D01*
X29940Y-36197D01*
X29959Y-36234D01*
X29959Y-35728D02*
X29940Y-35765D01*
X29940Y-35840D01*
X29959Y-35878D01*
X29996Y-35897D01*
X30146Y-35897D01*
X30184Y-35878D01*
X30203Y-35840D01*
X30203Y-35765D01*
X30184Y-35728D01*
X30146Y-35709D01*
X30109Y-35709D01*
X30071Y-35897D01*
X29940Y-35540D02*
X30203Y-35540D01*
X30128Y-35540D02*
X30165Y-35522D01*
X30184Y-35503D01*
X30203Y-35465D01*
X30203Y-35428D01*
X29940Y-35297D02*
X30203Y-35297D01*
X30128Y-35297D02*
X30165Y-35278D01*
X30184Y-35259D01*
X30203Y-35222D01*
X30203Y-35184D01*
X30203Y-35091D02*
X29940Y-34997D01*
X30203Y-34903D02*
X29940Y-34997D01*
X29846Y-35034D01*
X29828Y-35053D01*
X29809Y-35091D01*
X29940Y-34453D02*
X30334Y-34453D01*
X30334Y-34303D01*
X30315Y-34266D01*
X30296Y-34247D01*
X30259Y-34228D01*
X30203Y-34228D01*
X30165Y-34247D01*
X30146Y-34266D01*
X30128Y-34303D01*
X30128Y-34453D01*
X29940Y-34059D02*
X30203Y-34059D01*
X30334Y-34059D02*
X30315Y-34078D01*
X30296Y-34059D01*
X30315Y-34041D01*
X30334Y-34059D01*
X30296Y-34059D01*
X29704Y-41577D02*
X29704Y-41352D01*
X29310Y-41465D02*
X29704Y-41465D01*
X29310Y-41221D02*
X29573Y-41221D01*
X29704Y-41221D02*
X29685Y-41240D01*
X29666Y-41221D01*
X29685Y-41202D01*
X29704Y-41221D01*
X29666Y-41221D01*
X29310Y-41034D02*
X29573Y-41034D01*
X29535Y-41034D02*
X29554Y-41015D01*
X29573Y-40977D01*
X29573Y-40921D01*
X29554Y-40884D01*
X29516Y-40865D01*
X29310Y-40865D01*
X29516Y-40865D02*
X29554Y-40846D01*
X29573Y-40809D01*
X29573Y-40752D01*
X29554Y-40715D01*
X29516Y-40696D01*
X29310Y-40696D01*
X29310Y-40509D02*
X29573Y-40509D01*
X29704Y-40509D02*
X29685Y-40527D01*
X29666Y-40509D01*
X29685Y-40490D01*
X29704Y-40509D01*
X29666Y-40509D01*
X29573Y-40321D02*
X29310Y-40321D01*
X29535Y-40321D02*
X29554Y-40302D01*
X29573Y-40265D01*
X29573Y-40209D01*
X29554Y-40171D01*
X29516Y-40152D01*
X29310Y-40152D01*
X29573Y-39796D02*
X29254Y-39796D01*
X29216Y-39815D01*
X29198Y-39834D01*
X29179Y-39871D01*
X29179Y-39927D01*
X29198Y-39965D01*
X29329Y-39796D02*
X29310Y-39834D01*
X29310Y-39909D01*
X29329Y-39946D01*
X29348Y-39965D01*
X29385Y-39984D01*
X29498Y-39984D01*
X29535Y-39965D01*
X29554Y-39946D01*
X29573Y-39909D01*
X29573Y-39834D01*
X29554Y-39796D01*
X29423Y-39328D02*
X29423Y-39140D01*
X29310Y-39365D02*
X29704Y-39234D01*
X29310Y-39103D01*
X29310Y-38803D02*
X29704Y-38803D01*
X29329Y-38803D02*
X29310Y-38840D01*
X29310Y-38915D01*
X29329Y-38953D01*
X29348Y-38971D01*
X29385Y-38990D01*
X29498Y-38990D01*
X29535Y-38971D01*
X29554Y-38953D01*
X29573Y-38915D01*
X29573Y-38840D01*
X29554Y-38803D01*
X29310Y-38446D02*
X29516Y-38446D01*
X29554Y-38465D01*
X29573Y-38503D01*
X29573Y-38578D01*
X29554Y-38615D01*
X29329Y-38446D02*
X29310Y-38484D01*
X29310Y-38578D01*
X29329Y-38615D01*
X29366Y-38634D01*
X29404Y-38634D01*
X29441Y-38615D01*
X29460Y-38578D01*
X29460Y-38484D01*
X29479Y-38446D01*
X29573Y-38259D02*
X29179Y-38259D01*
X29554Y-38259D02*
X29573Y-38221D01*
X29573Y-38146D01*
X29554Y-38109D01*
X29535Y-38090D01*
X29498Y-38071D01*
X29385Y-38071D01*
X29348Y-38090D01*
X29329Y-38109D01*
X29310Y-38146D01*
X29310Y-38221D01*
X29329Y-38259D01*
X29573Y-37959D02*
X29573Y-37809D01*
X29704Y-37903D02*
X29366Y-37903D01*
X29329Y-37884D01*
X29310Y-37846D01*
X29310Y-37809D01*
X29329Y-37528D02*
X29310Y-37565D01*
X29310Y-37640D01*
X29329Y-37678D01*
X29366Y-37696D01*
X29516Y-37696D01*
X29554Y-37678D01*
X29573Y-37640D01*
X29573Y-37565D01*
X29554Y-37528D01*
X29516Y-37509D01*
X29479Y-37509D01*
X29441Y-37696D01*
X29310Y-37340D02*
X29573Y-37340D01*
X29498Y-37340D02*
X29535Y-37322D01*
X29554Y-37303D01*
X29573Y-37265D01*
X29573Y-37228D01*
X29516Y-36665D02*
X29498Y-36609D01*
X29479Y-36590D01*
X29441Y-36572D01*
X29385Y-36572D01*
X29348Y-36590D01*
X29329Y-36609D01*
X29310Y-36647D01*
X29310Y-36797D01*
X29704Y-36797D01*
X29704Y-36665D01*
X29685Y-36628D01*
X29666Y-36609D01*
X29629Y-36590D01*
X29591Y-36590D01*
X29554Y-36609D01*
X29535Y-36628D01*
X29516Y-36665D01*
X29516Y-36797D01*
X29310Y-36347D02*
X29329Y-36384D01*
X29348Y-36403D01*
X29385Y-36422D01*
X29498Y-36422D01*
X29535Y-36403D01*
X29554Y-36384D01*
X29573Y-36347D01*
X29573Y-36290D01*
X29554Y-36253D01*
X29535Y-36234D01*
X29498Y-36215D01*
X29385Y-36215D01*
X29348Y-36234D01*
X29329Y-36253D01*
X29310Y-36290D01*
X29310Y-36347D01*
X29310Y-35878D02*
X29516Y-35878D01*
X29554Y-35897D01*
X29573Y-35934D01*
X29573Y-36009D01*
X29554Y-36047D01*
X29329Y-35878D02*
X29310Y-35915D01*
X29310Y-36009D01*
X29329Y-36047D01*
X29366Y-36065D01*
X29404Y-36065D01*
X29441Y-36047D01*
X29460Y-36009D01*
X29460Y-35915D01*
X29479Y-35878D01*
X29310Y-35690D02*
X29573Y-35690D01*
X29498Y-35690D02*
X29535Y-35672D01*
X29554Y-35653D01*
X29573Y-35615D01*
X29573Y-35578D01*
X29310Y-35278D02*
X29704Y-35278D01*
X29329Y-35278D02*
X29310Y-35316D01*
X29310Y-35391D01*
X29329Y-35428D01*
X29348Y-35447D01*
X29385Y-35465D01*
X29498Y-35465D01*
X29535Y-35447D01*
X29554Y-35428D01*
X29573Y-35391D01*
X29573Y-35316D01*
X29554Y-35278D01*
X28680Y-43058D02*
X29074Y-43058D01*
X29074Y-42965D01*
X29055Y-42908D01*
X29018Y-42871D01*
X28980Y-42852D01*
X28905Y-42833D01*
X28849Y-42833D01*
X28774Y-42852D01*
X28737Y-42871D01*
X28699Y-42908D01*
X28680Y-42965D01*
X28680Y-43058D01*
X28699Y-42515D02*
X28680Y-42552D01*
X28680Y-42627D01*
X28699Y-42665D01*
X28737Y-42683D01*
X28887Y-42683D01*
X28924Y-42665D01*
X28943Y-42627D01*
X28943Y-42552D01*
X28924Y-42515D01*
X28887Y-42496D01*
X28849Y-42496D01*
X28812Y-42683D01*
X28699Y-42346D02*
X28680Y-42308D01*
X28680Y-42233D01*
X28699Y-42196D01*
X28737Y-42177D01*
X28755Y-42177D01*
X28793Y-42196D01*
X28812Y-42233D01*
X28812Y-42290D01*
X28830Y-42327D01*
X28868Y-42346D01*
X28887Y-42346D01*
X28924Y-42327D01*
X28943Y-42290D01*
X28943Y-42233D01*
X28924Y-42196D01*
X28680Y-42008D02*
X28943Y-42008D01*
X29074Y-42008D02*
X29055Y-42027D01*
X29037Y-42008D01*
X29055Y-41990D01*
X29074Y-42008D01*
X29037Y-42008D01*
X28943Y-41652D02*
X28624Y-41652D01*
X28587Y-41671D01*
X28568Y-41690D01*
X28549Y-41727D01*
X28549Y-41783D01*
X28568Y-41821D01*
X28699Y-41652D02*
X28680Y-41690D01*
X28680Y-41765D01*
X28699Y-41802D01*
X28718Y-41821D01*
X28755Y-41840D01*
X28868Y-41840D01*
X28905Y-41821D01*
X28924Y-41802D01*
X28943Y-41765D01*
X28943Y-41690D01*
X28924Y-41652D01*
X28943Y-41465D02*
X28680Y-41465D01*
X28905Y-41465D02*
X28924Y-41446D01*
X28943Y-41408D01*
X28943Y-41352D01*
X28924Y-41315D01*
X28887Y-41296D01*
X28680Y-41296D01*
X28699Y-40959D02*
X28680Y-40996D01*
X28680Y-41071D01*
X28699Y-41109D01*
X28737Y-41127D01*
X28887Y-41127D01*
X28924Y-41109D01*
X28943Y-41071D01*
X28943Y-40996D01*
X28924Y-40959D01*
X28887Y-40940D01*
X28849Y-40940D01*
X28812Y-41127D01*
X28680Y-40602D02*
X29074Y-40602D01*
X28699Y-40602D02*
X28680Y-40640D01*
X28680Y-40715D01*
X28699Y-40752D01*
X28718Y-40771D01*
X28755Y-40790D01*
X28868Y-40790D01*
X28905Y-40771D01*
X28924Y-40752D01*
X28943Y-40715D01*
X28943Y-40640D01*
X28924Y-40602D01*
X28887Y-39984D02*
X28868Y-39927D01*
X28849Y-39909D01*
X28812Y-39890D01*
X28755Y-39890D01*
X28718Y-39909D01*
X28699Y-39927D01*
X28680Y-39965D01*
X28680Y-40115D01*
X29074Y-40115D01*
X29074Y-39984D01*
X29055Y-39946D01*
X29037Y-39927D01*
X28999Y-39909D01*
X28962Y-39909D01*
X28924Y-39927D01*
X28905Y-39946D01*
X28887Y-39984D01*
X28887Y-40115D01*
X28943Y-39759D02*
X28680Y-39665D01*
X28943Y-39571D02*
X28680Y-39665D01*
X28587Y-39702D01*
X28568Y-39721D01*
X28549Y-39759D01*
X28718Y-39421D02*
X28699Y-39403D01*
X28680Y-39421D01*
X28699Y-39440D01*
X28718Y-39421D01*
X28680Y-39421D01*
X28924Y-39421D02*
X28905Y-39403D01*
X28887Y-39421D01*
X28905Y-39440D01*
X28924Y-39421D01*
X28887Y-39421D01*
X28887Y-38803D02*
X28868Y-38746D01*
X28849Y-38728D01*
X28812Y-38709D01*
X28755Y-38709D01*
X28718Y-38728D01*
X28699Y-38746D01*
X28680Y-38784D01*
X28680Y-38934D01*
X29074Y-38934D01*
X29074Y-38803D01*
X29055Y-38765D01*
X29037Y-38746D01*
X28999Y-38728D01*
X28962Y-38728D01*
X28924Y-38746D01*
X28905Y-38765D01*
X28887Y-38803D01*
X28887Y-38934D01*
X28680Y-38540D02*
X28943Y-38540D01*
X28868Y-38540D02*
X28905Y-38521D01*
X28924Y-38503D01*
X28943Y-38465D01*
X28943Y-38428D01*
X28680Y-38128D02*
X28887Y-38128D01*
X28924Y-38146D01*
X28943Y-38184D01*
X28943Y-38259D01*
X28924Y-38296D01*
X28699Y-38128D02*
X28680Y-38165D01*
X28680Y-38259D01*
X28699Y-38296D01*
X28737Y-38315D01*
X28774Y-38315D01*
X28812Y-38296D01*
X28830Y-38259D01*
X28830Y-38165D01*
X28849Y-38128D01*
X28943Y-37940D02*
X28680Y-37940D01*
X28905Y-37940D02*
X28924Y-37921D01*
X28943Y-37884D01*
X28943Y-37828D01*
X28924Y-37790D01*
X28887Y-37771D01*
X28680Y-37771D01*
X28680Y-37415D02*
X29074Y-37415D01*
X28699Y-37415D02*
X28680Y-37453D01*
X28680Y-37528D01*
X28699Y-37565D01*
X28718Y-37584D01*
X28755Y-37603D01*
X28868Y-37603D01*
X28905Y-37584D01*
X28924Y-37565D01*
X28943Y-37528D01*
X28943Y-37453D01*
X28924Y-37415D01*
X28680Y-37172D02*
X28699Y-37209D01*
X28718Y-37228D01*
X28755Y-37247D01*
X28868Y-37247D01*
X28905Y-37228D01*
X28924Y-37209D01*
X28943Y-37172D01*
X28943Y-37115D01*
X28924Y-37078D01*
X28905Y-37059D01*
X28868Y-37040D01*
X28755Y-37040D01*
X28718Y-37059D01*
X28699Y-37078D01*
X28680Y-37115D01*
X28680Y-37172D01*
X28943Y-36872D02*
X28680Y-36872D01*
X28905Y-36872D02*
X28924Y-36853D01*
X28943Y-36815D01*
X28943Y-36759D01*
X28924Y-36722D01*
X28887Y-36703D01*
X28680Y-36703D01*
X28680Y-36215D02*
X29074Y-36215D01*
X29074Y-36065D01*
X29055Y-36028D01*
X29037Y-36009D01*
X28999Y-35990D01*
X28943Y-35990D01*
X28905Y-36009D01*
X28887Y-36028D01*
X28868Y-36065D01*
X28868Y-36215D01*
X28699Y-35672D02*
X28680Y-35709D01*
X28680Y-35784D01*
X28699Y-35822D01*
X28737Y-35840D01*
X28887Y-35840D01*
X28924Y-35822D01*
X28943Y-35784D01*
X28943Y-35709D01*
X28924Y-35672D01*
X28887Y-35653D01*
X28849Y-35653D01*
X28812Y-35840D01*
X28943Y-35484D02*
X28680Y-35484D01*
X28905Y-35484D02*
X28924Y-35465D01*
X28943Y-35428D01*
X28943Y-35372D01*
X28924Y-35334D01*
X28887Y-35316D01*
X28680Y-35316D01*
X28943Y-34959D02*
X28624Y-34959D01*
X28587Y-34978D01*
X28568Y-34997D01*
X28549Y-35034D01*
X28549Y-35091D01*
X28568Y-35128D01*
X28699Y-34959D02*
X28680Y-34997D01*
X28680Y-35072D01*
X28699Y-35109D01*
X28718Y-35128D01*
X28755Y-35147D01*
X28868Y-35147D01*
X28905Y-35128D01*
X28924Y-35109D01*
X28943Y-35072D01*
X28943Y-34997D01*
X28924Y-34959D01*
X28680Y-34716D02*
X28699Y-34753D01*
X28737Y-34772D01*
X29074Y-34772D01*
X28680Y-34397D02*
X28887Y-34397D01*
X28924Y-34416D01*
X28943Y-34453D01*
X28943Y-34528D01*
X28924Y-34566D01*
X28699Y-34397D02*
X28680Y-34434D01*
X28680Y-34528D01*
X28699Y-34566D01*
X28737Y-34584D01*
X28774Y-34584D01*
X28812Y-34566D01*
X28830Y-34528D01*
X28830Y-34434D01*
X28849Y-34397D01*
X28699Y-34228D02*
X28680Y-34191D01*
X28680Y-34116D01*
X28699Y-34078D01*
X28737Y-34059D01*
X28755Y-34059D01*
X28793Y-34078D01*
X28812Y-34116D01*
X28812Y-34172D01*
X28830Y-34209D01*
X28868Y-34228D01*
X28887Y-34228D01*
X28924Y-34209D01*
X28943Y-34172D01*
X28943Y-34116D01*
X28924Y-34078D01*
X28699Y-33741D02*
X28680Y-33778D01*
X28680Y-33853D01*
X28699Y-33891D01*
X28737Y-33909D01*
X28887Y-33909D01*
X28924Y-33891D01*
X28943Y-33853D01*
X28943Y-33778D01*
X28924Y-33741D01*
X28887Y-33722D01*
X28849Y-33722D01*
X28812Y-33909D01*
X28050Y-40743D02*
X28444Y-40743D01*
X28444Y-40649D01*
X28425Y-40593D01*
X28388Y-40555D01*
X28350Y-40537D01*
X28275Y-40518D01*
X28219Y-40518D01*
X28144Y-40537D01*
X28107Y-40555D01*
X28069Y-40593D01*
X28050Y-40649D01*
X28050Y-40743D01*
X28050Y-40181D02*
X28257Y-40181D01*
X28294Y-40199D01*
X28313Y-40237D01*
X28313Y-40312D01*
X28294Y-40349D01*
X28069Y-40181D02*
X28050Y-40218D01*
X28050Y-40312D01*
X28069Y-40349D01*
X28107Y-40368D01*
X28144Y-40368D01*
X28182Y-40349D01*
X28200Y-40312D01*
X28200Y-40218D01*
X28219Y-40181D01*
X28313Y-40049D02*
X28313Y-39899D01*
X28444Y-39993D02*
X28107Y-39993D01*
X28069Y-39974D01*
X28050Y-39937D01*
X28050Y-39899D01*
X28069Y-39618D02*
X28050Y-39656D01*
X28050Y-39731D01*
X28069Y-39768D01*
X28107Y-39787D01*
X28257Y-39787D01*
X28294Y-39768D01*
X28313Y-39731D01*
X28313Y-39656D01*
X28294Y-39618D01*
X28257Y-39599D01*
X28219Y-39599D01*
X28182Y-39787D01*
X28088Y-39431D02*
X28069Y-39412D01*
X28050Y-39431D01*
X28069Y-39449D01*
X28088Y-39431D01*
X28050Y-39431D01*
X28294Y-39431D02*
X28275Y-39412D01*
X28257Y-39431D01*
X28275Y-39449D01*
X28294Y-39431D01*
X28257Y-39431D01*
X28444Y-38868D02*
X28444Y-38831D01*
X28425Y-38793D01*
X28407Y-38774D01*
X28369Y-38756D01*
X28294Y-38737D01*
X28200Y-38737D01*
X28125Y-38756D01*
X28088Y-38774D01*
X28069Y-38793D01*
X28050Y-38831D01*
X28050Y-38868D01*
X28069Y-38906D01*
X28088Y-38924D01*
X28125Y-38943D01*
X28200Y-38962D01*
X28294Y-38962D01*
X28369Y-38943D01*
X28407Y-38924D01*
X28425Y-38906D01*
X28444Y-38868D01*
X28444Y-38399D02*
X28444Y-38474D01*
X28425Y-38512D01*
X28407Y-38531D01*
X28350Y-38568D01*
X28275Y-38587D01*
X28125Y-38587D01*
X28088Y-38568D01*
X28069Y-38549D01*
X28050Y-38512D01*
X28050Y-38437D01*
X28069Y-38399D01*
X28088Y-38381D01*
X28125Y-38362D01*
X28219Y-38362D01*
X28257Y-38381D01*
X28275Y-38399D01*
X28294Y-38437D01*
X28294Y-38512D01*
X28275Y-38549D01*
X28257Y-38568D01*
X28219Y-38587D01*
X28463Y-37912D02*
X27957Y-38250D01*
X28407Y-37800D02*
X28425Y-37781D01*
X28444Y-37743D01*
X28444Y-37650D01*
X28425Y-37612D01*
X28407Y-37593D01*
X28369Y-37575D01*
X28332Y-37575D01*
X28275Y-37593D01*
X28050Y-37818D01*
X28050Y-37575D01*
X28407Y-37425D02*
X28425Y-37406D01*
X28444Y-37368D01*
X28444Y-37275D01*
X28425Y-37237D01*
X28407Y-37218D01*
X28369Y-37200D01*
X28332Y-37200D01*
X28275Y-37218D01*
X28050Y-37443D01*
X28050Y-37200D01*
X28463Y-36750D02*
X27957Y-37087D01*
X28050Y-36412D02*
X28050Y-36637D01*
X28050Y-36525D02*
X28444Y-36525D01*
X28388Y-36562D01*
X28350Y-36600D01*
X28332Y-36637D01*
X28313Y-36075D02*
X28050Y-36075D01*
X28463Y-36169D02*
X28182Y-36262D01*
X28182Y-36019D01*
X27420Y-40012D02*
X27608Y-40143D01*
X27420Y-40237D02*
X27814Y-40237D01*
X27814Y-40087D01*
X27795Y-40049D01*
X27777Y-40031D01*
X27739Y-40012D01*
X27683Y-40012D01*
X27645Y-40031D01*
X27627Y-40049D01*
X27608Y-40087D01*
X27608Y-40237D01*
X27439Y-39693D02*
X27420Y-39731D01*
X27420Y-39806D01*
X27439Y-39843D01*
X27477Y-39862D01*
X27627Y-39862D01*
X27664Y-39843D01*
X27683Y-39806D01*
X27683Y-39731D01*
X27664Y-39693D01*
X27627Y-39674D01*
X27589Y-39674D01*
X27552Y-39862D01*
X27683Y-39543D02*
X27420Y-39449D01*
X27683Y-39356D01*
X27420Y-39206D02*
X27683Y-39206D01*
X27814Y-39206D02*
X27795Y-39224D01*
X27777Y-39206D01*
X27795Y-39187D01*
X27814Y-39206D01*
X27777Y-39206D01*
X27439Y-39037D02*
X27420Y-38999D01*
X27420Y-38924D01*
X27439Y-38887D01*
X27477Y-38868D01*
X27495Y-38868D01*
X27533Y-38887D01*
X27552Y-38924D01*
X27552Y-38981D01*
X27570Y-39018D01*
X27608Y-39037D01*
X27627Y-39037D01*
X27664Y-39018D01*
X27683Y-38981D01*
X27683Y-38924D01*
X27664Y-38887D01*
X27420Y-38699D02*
X27683Y-38699D01*
X27814Y-38699D02*
X27795Y-38718D01*
X27777Y-38699D01*
X27795Y-38681D01*
X27814Y-38699D01*
X27777Y-38699D01*
X27420Y-38456D02*
X27439Y-38493D01*
X27458Y-38512D01*
X27495Y-38531D01*
X27608Y-38531D01*
X27645Y-38512D01*
X27664Y-38493D01*
X27683Y-38456D01*
X27683Y-38399D01*
X27664Y-38362D01*
X27645Y-38343D01*
X27608Y-38325D01*
X27495Y-38325D01*
X27458Y-38343D01*
X27439Y-38362D01*
X27420Y-38399D01*
X27420Y-38456D01*
X27683Y-38156D02*
X27420Y-38156D01*
X27645Y-38156D02*
X27664Y-38137D01*
X27683Y-38100D01*
X27683Y-38043D01*
X27664Y-38006D01*
X27627Y-37987D01*
X27420Y-37987D01*
X27458Y-37800D02*
X27439Y-37781D01*
X27420Y-37800D01*
X27439Y-37818D01*
X27458Y-37800D01*
X27420Y-37800D01*
X27664Y-37800D02*
X27645Y-37781D01*
X27627Y-37800D01*
X27645Y-37818D01*
X27664Y-37800D01*
X27627Y-37800D01*
X27777Y-37331D02*
X27795Y-37312D01*
X27814Y-37275D01*
X27814Y-37181D01*
X27795Y-37143D01*
X27777Y-37125D01*
X27739Y-37106D01*
X27702Y-37106D01*
X27645Y-37125D01*
X27420Y-37350D01*
X27420Y-37106D01*
X27458Y-36937D02*
X27439Y-36918D01*
X27420Y-36937D01*
X27439Y-36956D01*
X27458Y-36937D01*
X27420Y-36937D01*
X27814Y-36562D02*
X27814Y-36750D01*
X27627Y-36768D01*
X27645Y-36750D01*
X27664Y-36712D01*
X27664Y-36618D01*
X27645Y-36581D01*
X27627Y-36562D01*
X27589Y-36543D01*
X27495Y-36543D01*
X27458Y-36562D01*
X27439Y-36581D01*
X27420Y-36618D01*
X27420Y-36712D01*
X27439Y-36750D01*
X27458Y-36768D01*
G54D14*
G36*
X27370Y-34442D02*
X27373Y-34449D01*
X27382Y-34462D01*
X27395Y-34482D01*
X27410Y-34505D01*
X27426Y-34529D01*
X27439Y-34548D01*
X27448Y-34562D01*
X27451Y-34567D01*
X27450Y-34570D01*
X27444Y-34581D01*
X27436Y-34597D01*
X27431Y-34607D01*
X27425Y-34622D01*
X27423Y-34629D01*
X27425Y-34630D01*
X27437Y-34636D01*
X27456Y-34644D01*
X27482Y-34655D01*
X27512Y-34668D01*
X27544Y-34682D01*
X27577Y-34695D01*
X27608Y-34708D01*
X27637Y-34720D01*
X27660Y-34729D01*
X27676Y-34735D01*
X27683Y-34738D01*
X27684Y-34737D01*
X27691Y-34730D01*
X27701Y-34717D01*
X27724Y-34689D01*
X27758Y-34661D01*
X27797Y-34644D01*
X27841Y-34639D01*
X27881Y-34643D01*
X27919Y-34659D01*
X27954Y-34686D01*
X27980Y-34719D01*
X27996Y-34757D01*
X28001Y-34800D01*
X27997Y-34841D01*
X27981Y-34880D01*
X27955Y-34915D01*
X27938Y-34930D01*
X27902Y-34950D01*
X27865Y-34962D01*
X27856Y-34963D01*
X27814Y-34961D01*
X27774Y-34949D01*
X27739Y-34927D01*
X27710Y-34897D01*
X27707Y-34893D01*
X27696Y-34879D01*
X27689Y-34869D01*
X27683Y-34862D01*
X27556Y-34915D01*
X27536Y-34923D01*
X27501Y-34938D01*
X27471Y-34950D01*
X27447Y-34961D01*
X27431Y-34968D01*
X27425Y-34971D01*
X27425Y-34971D01*
X27424Y-34976D01*
X27427Y-34985D01*
X27436Y-35003D01*
X27442Y-35015D01*
X27448Y-35028D01*
X27451Y-35034D01*
X27448Y-35040D01*
X27440Y-35053D01*
X27427Y-35071D01*
X27412Y-35094D01*
X27397Y-35116D01*
X27384Y-35136D01*
X27374Y-35150D01*
X27371Y-35157D01*
X27371Y-35158D01*
X27374Y-35165D01*
X27384Y-35176D01*
X27400Y-35193D01*
X27424Y-35218D01*
X27428Y-35222D01*
X27448Y-35242D01*
X27466Y-35258D01*
X27478Y-35269D01*
X27483Y-35273D01*
X27483Y-35273D01*
X27490Y-35269D01*
X27505Y-35260D01*
X27525Y-35247D01*
X27549Y-35231D01*
X27610Y-35189D01*
X27667Y-35212D01*
X27685Y-35219D01*
X27707Y-35228D01*
X27722Y-35235D01*
X27729Y-35238D01*
X27731Y-35245D01*
X27735Y-35260D01*
X27739Y-35283D01*
X27744Y-35311D01*
X27749Y-35337D01*
X27754Y-35360D01*
X27757Y-35377D01*
X27758Y-35385D01*
X27760Y-35387D01*
X27763Y-35388D01*
X27771Y-35389D01*
X27786Y-35390D01*
X27808Y-35390D01*
X27841Y-35390D01*
X27844Y-35390D01*
X27875Y-35390D01*
X27900Y-35389D01*
X27915Y-35388D01*
X27922Y-35387D01*
X27922Y-35387D01*
X27924Y-35380D01*
X27927Y-35363D01*
X27932Y-35340D01*
X27937Y-35312D01*
X27937Y-35310D01*
X27943Y-35282D01*
X27948Y-35259D01*
X27951Y-35242D01*
X27954Y-35235D01*
X27956Y-35234D01*
X27967Y-35228D01*
X27984Y-35220D01*
X28005Y-35211D01*
X28027Y-35202D01*
X28047Y-35194D01*
X28061Y-35189D01*
X28068Y-35187D01*
X28068Y-35187D01*
X28075Y-35191D01*
X28089Y-35201D01*
X28109Y-35215D01*
X28133Y-35231D01*
X28135Y-35232D01*
X28159Y-35248D01*
X28179Y-35261D01*
X28193Y-35270D01*
X28199Y-35273D01*
X28200Y-35273D01*
X28207Y-35268D01*
X28220Y-35256D01*
X28238Y-35238D01*
X28259Y-35218D01*
X28265Y-35211D01*
X28288Y-35188D01*
X28302Y-35172D01*
X28310Y-35162D01*
X28312Y-35158D01*
X28312Y-35157D01*
X28308Y-35150D01*
X28298Y-35135D01*
X28284Y-35115D01*
X28268Y-35091D01*
X28267Y-35090D01*
X28251Y-35066D01*
X28237Y-35046D01*
X28228Y-35032D01*
X28225Y-35026D01*
X28225Y-35025D01*
X28227Y-35016D01*
X28233Y-34999D01*
X28241Y-34978D01*
X28250Y-34956D01*
X28258Y-34936D01*
X28265Y-34922D01*
X28269Y-34915D01*
X28269Y-34914D01*
X28278Y-34912D01*
X28296Y-34908D01*
X28320Y-34903D01*
X28349Y-34897D01*
X28353Y-34896D01*
X28382Y-34891D01*
X28405Y-34887D01*
X28421Y-34883D01*
X28428Y-34882D01*
X28428Y-34878D01*
X28429Y-34864D01*
X28430Y-34843D01*
X28430Y-34817D01*
X28430Y-34791D01*
X28430Y-34765D01*
X28429Y-34743D01*
X28428Y-34727D01*
X28426Y-34720D01*
X28426Y-34720D01*
X28417Y-34718D01*
X28400Y-34714D01*
X28375Y-34709D01*
X28346Y-34703D01*
X28341Y-34702D01*
X28313Y-34697D01*
X28290Y-34692D01*
X28274Y-34689D01*
X28268Y-34687D01*
X28267Y-34685D01*
X28261Y-34673D01*
X28254Y-34654D01*
X28244Y-34631D01*
X28222Y-34577D01*
X28268Y-34511D01*
X28272Y-34505D01*
X28288Y-34481D01*
X28301Y-34461D01*
X28310Y-34447D01*
X28313Y-34442D01*
X28313Y-34441D01*
X28307Y-34435D01*
X28295Y-34422D01*
X28277Y-34404D01*
X28257Y-34383D01*
X28241Y-34367D01*
X28223Y-34349D01*
X28210Y-34338D01*
X28202Y-34331D01*
X28197Y-34329D01*
X28194Y-34330D01*
X28187Y-34334D01*
X28173Y-34344D01*
X28152Y-34357D01*
X28129Y-34373D01*
X28109Y-34387D01*
X28087Y-34401D01*
X28071Y-34410D01*
X28064Y-34414D01*
X28060Y-34413D01*
X28047Y-34408D01*
X28028Y-34400D01*
X28004Y-34390D01*
X27952Y-34367D01*
X27945Y-34333D01*
X27941Y-34312D01*
X27936Y-34283D01*
X27930Y-34255D01*
X27922Y-34211D01*
X27763Y-34210D01*
X27760Y-34217D01*
X27758Y-34223D01*
X27754Y-34239D01*
X27750Y-34262D01*
X27745Y-34289D01*
X27740Y-34313D01*
X27736Y-34336D01*
X27733Y-34353D01*
X27731Y-34360D01*
X27729Y-34362D01*
X27717Y-34368D01*
X27699Y-34376D01*
X27678Y-34385D01*
X27655Y-34395D01*
X27635Y-34403D01*
X27619Y-34409D01*
X27611Y-34411D01*
X27605Y-34408D01*
X27591Y-34399D01*
X27571Y-34386D01*
X27548Y-34370D01*
X27525Y-34354D01*
X27505Y-34341D01*
X27491Y-34331D01*
X27484Y-34328D01*
X27480Y-34330D01*
X27469Y-34339D01*
X27451Y-34356D01*
X27425Y-34382D01*
X27421Y-34387D01*
X27401Y-34407D01*
X27385Y-34425D01*
X27374Y-34437D01*
X27370Y-34442D01*
X27370Y-34442D01*
G37*
G54D15*
X36597Y-38344D02*
X36872Y-38344D01*
X36203Y-38344D02*
X35928Y-38344D01*
X36597Y-38856D02*
X36872Y-38856D01*
X35928Y-38856D02*
X36203Y-38856D01*
X36872Y-38850D02*
X36872Y-38350D01*
X35928Y-38350D02*
X35928Y-38850D01*
G54D16*
X33500Y-37350D02*
X37500Y-37350D01*
X37500Y-37350D02*
X37500Y-34050D01*
X37500Y-34050D02*
X33500Y-34050D01*
X33500Y-34050D02*
X33500Y-37350D01*
X37500Y-35450D02*
X37200Y-35450D01*
X37200Y-35450D02*
X37200Y-35950D01*
X37200Y-35950D02*
X37500Y-35950D01*
X34675Y-31397D02*
X34675Y-31675D01*
X34675Y-31675D02*
X34125Y-31675D01*
X34125Y-31675D02*
X34125Y-31397D01*
X34675Y-30725D02*
X34675Y-31003D01*
X34675Y-30725D02*
X34125Y-30725D01*
X34125Y-30725D02*
X34125Y-31003D01*
X33675Y-31697D02*
X33675Y-31975D01*
X33675Y-31975D02*
X33125Y-31975D01*
X33125Y-31975D02*
X33125Y-31697D01*
X33675Y-31025D02*
X33675Y-31303D01*
X33675Y-31025D02*
X33125Y-31025D01*
X33125Y-31025D02*
X33125Y-31303D01*
G54D17*
X37161Y-38570D02*
X37171Y-38561D01*
X37180Y-38535D01*
X37180Y-38518D01*
X37171Y-38492D01*
X37152Y-38475D01*
X37133Y-38467D01*
X37095Y-38458D01*
X37066Y-38458D01*
X37028Y-38467D01*
X37009Y-38475D01*
X36990Y-38492D01*
X36980Y-38518D01*
X36980Y-38535D01*
X36990Y-38561D01*
X37000Y-38570D01*
X37180Y-38741D02*
X37180Y-38638D01*
X37180Y-38690D02*
X36980Y-38690D01*
X37009Y-38672D01*
X37028Y-38655D01*
X37038Y-38638D01*
X35630Y-38304D02*
X35630Y-38321D01*
X35640Y-38338D01*
X35650Y-38347D01*
X35669Y-38355D01*
X35707Y-38364D01*
X35754Y-38364D01*
X35792Y-38355D01*
X35811Y-38347D01*
X35821Y-38338D01*
X35830Y-38321D01*
X35830Y-38304D01*
X35821Y-38287D01*
X35811Y-38278D01*
X35792Y-38270D01*
X35754Y-38261D01*
X35707Y-38261D01*
X35669Y-38270D01*
X35650Y-38278D01*
X35640Y-38287D01*
X35630Y-38304D01*
X35811Y-38441D02*
X35821Y-38450D01*
X35830Y-38441D01*
X35821Y-38432D01*
X35811Y-38441D01*
X35830Y-38441D01*
X35830Y-38621D02*
X35830Y-38518D01*
X35830Y-38570D02*
X35630Y-38570D01*
X35659Y-38552D01*
X35678Y-38535D01*
X35688Y-38518D01*
X35697Y-38775D02*
X35830Y-38775D01*
X35697Y-38698D02*
X35802Y-38698D01*
X35821Y-38707D01*
X35830Y-38724D01*
X35830Y-38750D01*
X35821Y-38767D01*
X35811Y-38775D01*
X35726Y-38921D02*
X35726Y-38861D01*
X35830Y-38861D02*
X35630Y-38861D01*
X35630Y-38947D01*
G54D18*
X35939Y-36482D02*
X35939Y-36032D01*
X35467Y-36439D02*
X35489Y-36460D01*
X35553Y-36482D01*
X35596Y-36482D01*
X35660Y-36460D01*
X35703Y-36417D01*
X35724Y-36375D01*
X35746Y-36289D01*
X35746Y-36225D01*
X35724Y-36139D01*
X35703Y-36096D01*
X35660Y-36053D01*
X35596Y-36032D01*
X35553Y-36032D01*
X35489Y-36053D01*
X35467Y-36075D01*
X35039Y-36482D02*
X35296Y-36482D01*
X35167Y-36482D02*
X35167Y-36032D01*
X35210Y-36096D01*
X35253Y-36139D01*
X35296Y-36160D01*
G54D17*
X34455Y-31254D02*
X34515Y-31160D01*
X34557Y-31254D02*
X34557Y-31057D01*
X34489Y-31057D01*
X34472Y-31067D01*
X34463Y-31076D01*
X34455Y-31095D01*
X34455Y-31123D01*
X34463Y-31142D01*
X34472Y-31151D01*
X34489Y-31160D01*
X34557Y-31160D01*
X34283Y-31254D02*
X34386Y-31254D01*
X34335Y-31254D02*
X34335Y-31057D01*
X34352Y-31085D01*
X34369Y-31104D01*
X34386Y-31114D01*
X33455Y-31554D02*
X33515Y-31460D01*
X33557Y-31554D02*
X33557Y-31357D01*
X33489Y-31357D01*
X33472Y-31367D01*
X33463Y-31376D01*
X33455Y-31395D01*
X33455Y-31423D01*
X33463Y-31442D01*
X33472Y-31451D01*
X33489Y-31460D01*
X33557Y-31460D01*
X33386Y-31376D02*
X33377Y-31367D01*
X33360Y-31357D01*
X33317Y-31357D01*
X33300Y-31367D01*
X33292Y-31376D01*
X33283Y-31395D01*
X33283Y-31414D01*
X33292Y-31442D01*
X33395Y-31554D01*
X33283Y-31554D01*
M02*
