G04 (created by PCBNEW (2013-may-18)-stable) date Sun 22 Jun 2014 12:37:11 AM EDT*
%MOIN*%
G04 Gerber Fmt 3.4, Leading zero omitted, Abs format*
%FSLAX34Y34*%
G01*
G70*
G90*
G04 APERTURE LIST*
%ADD10C,0.00590551*%
%ADD11C,0.00787402*%
%ADD12C,0.008*%
%ADD13C,0.015*%
%ADD14C,0.006*%
%ADD15C,3.93701e-06*%
%ADD16C,4.72441e-06*%
%ADD17C,0.012*%
G04 APERTURE END LIST*
G54D10*
G54D11*
X28400Y-31062D02*
X28445Y-31077D01*
X28460Y-31092D01*
X28475Y-31122D01*
X28475Y-31167D01*
X28460Y-31197D01*
X28445Y-31212D01*
X28415Y-31227D01*
X28295Y-31227D01*
X28295Y-30912D01*
X28400Y-30912D01*
X28430Y-30927D01*
X28445Y-30942D01*
X28460Y-30972D01*
X28460Y-31002D01*
X28445Y-31032D01*
X28430Y-31047D01*
X28400Y-31062D01*
X28295Y-31062D01*
X28655Y-31227D02*
X28625Y-31212D01*
X28610Y-31197D01*
X28595Y-31167D01*
X28595Y-31077D01*
X28610Y-31047D01*
X28625Y-31032D01*
X28655Y-31017D01*
X28700Y-31017D01*
X28730Y-31032D01*
X28745Y-31047D01*
X28760Y-31077D01*
X28760Y-31167D01*
X28745Y-31197D01*
X28730Y-31212D01*
X28700Y-31227D01*
X28655Y-31227D01*
X28940Y-31227D02*
X28910Y-31212D01*
X28895Y-31197D01*
X28880Y-31167D01*
X28880Y-31077D01*
X28895Y-31047D01*
X28910Y-31032D01*
X28940Y-31017D01*
X28985Y-31017D01*
X29015Y-31032D01*
X29030Y-31047D01*
X29045Y-31077D01*
X29045Y-31167D01*
X29030Y-31197D01*
X29015Y-31212D01*
X28985Y-31227D01*
X28940Y-31227D01*
X29135Y-31017D02*
X29255Y-31017D01*
X29180Y-30912D02*
X29180Y-31182D01*
X29195Y-31212D01*
X29225Y-31227D01*
X29255Y-31227D01*
X29585Y-31212D02*
X29629Y-31227D01*
X29704Y-31227D01*
X29734Y-31212D01*
X29749Y-31197D01*
X29764Y-31167D01*
X29764Y-31137D01*
X29749Y-31107D01*
X29734Y-31092D01*
X29704Y-31077D01*
X29644Y-31062D01*
X29614Y-31047D01*
X29600Y-31032D01*
X29585Y-31002D01*
X29585Y-30972D01*
X29600Y-30942D01*
X29614Y-30927D01*
X29644Y-30912D01*
X29719Y-30912D01*
X29764Y-30927D01*
X30019Y-31212D02*
X29989Y-31227D01*
X29929Y-31227D01*
X29899Y-31212D01*
X29884Y-31182D01*
X29884Y-31062D01*
X29899Y-31032D01*
X29929Y-31017D01*
X29989Y-31017D01*
X30019Y-31032D01*
X30034Y-31062D01*
X30034Y-31092D01*
X29884Y-31122D01*
X30214Y-31227D02*
X30184Y-31212D01*
X30169Y-31182D01*
X30169Y-30912D01*
X30454Y-31212D02*
X30424Y-31227D01*
X30364Y-31227D01*
X30334Y-31212D01*
X30319Y-31182D01*
X30319Y-31062D01*
X30334Y-31032D01*
X30364Y-31017D01*
X30424Y-31017D01*
X30454Y-31032D01*
X30469Y-31062D01*
X30469Y-31092D01*
X30319Y-31122D01*
X30739Y-31212D02*
X30709Y-31227D01*
X30649Y-31227D01*
X30619Y-31212D01*
X30604Y-31197D01*
X30589Y-31167D01*
X30589Y-31077D01*
X30604Y-31047D01*
X30619Y-31032D01*
X30649Y-31017D01*
X30709Y-31017D01*
X30739Y-31032D01*
X30829Y-31017D02*
X30949Y-31017D01*
X30874Y-30912D02*
X30874Y-31182D01*
X30889Y-31212D01*
X30919Y-31227D01*
X30949Y-31227D01*
G54D12*
X25381Y-30505D02*
X38381Y-30505D01*
X38381Y-28505D02*
X25381Y-28505D01*
X25381Y-28505D02*
X25381Y-30505D01*
X38381Y-30505D02*
X38381Y-28505D01*
G54D13*
X36000Y-42900D02*
G75*
G03X36000Y-42900I-900J0D01*
G74*
G01*
X28300Y-44700D02*
X28300Y-44200D01*
X28300Y-44200D02*
X29300Y-44200D01*
X29300Y-44200D02*
X29300Y-44700D01*
X26300Y-44700D02*
X26300Y-31700D01*
X26300Y-31700D02*
X31300Y-31700D01*
X31300Y-31700D02*
X31300Y-44700D01*
X31300Y-44700D02*
X26300Y-44700D01*
G54D14*
X25700Y-31600D02*
X25700Y-30600D01*
X25700Y-30600D02*
X27700Y-30600D01*
X27700Y-30600D02*
X27700Y-31600D01*
X27700Y-31600D02*
X25700Y-31600D01*
G54D10*
X35297Y-41318D02*
X35297Y-40058D01*
X35297Y-40058D02*
X35297Y-40018D01*
X35297Y-40018D02*
X37502Y-40018D01*
X37502Y-40018D02*
X37502Y-41357D01*
X37502Y-41357D02*
X35297Y-41357D01*
X35297Y-32341D02*
X35297Y-31081D01*
X35297Y-31081D02*
X37462Y-31081D01*
X37462Y-31081D02*
X37502Y-31081D01*
X37502Y-31081D02*
X37502Y-32341D01*
X37502Y-32341D02*
X37502Y-32381D01*
X37502Y-32381D02*
X35297Y-32381D01*
X39903Y-36200D02*
G75*
G03X39903Y-36200I-3503J0D01*
G74*
G01*
G54D12*
X38604Y-28961D02*
X38604Y-28561D01*
X38757Y-28561D01*
X38795Y-28580D01*
X38814Y-28600D01*
X38833Y-28638D01*
X38833Y-28695D01*
X38814Y-28733D01*
X38795Y-28752D01*
X38757Y-28771D01*
X38604Y-28771D01*
X38985Y-28600D02*
X39004Y-28580D01*
X39042Y-28561D01*
X39138Y-28561D01*
X39176Y-28580D01*
X39195Y-28600D01*
X39214Y-28638D01*
X39214Y-28676D01*
X39195Y-28733D01*
X38966Y-28961D01*
X39214Y-28961D01*
G54D15*
G54D16*
G54D15*
G54D16*
G54D12*
X28061Y-38495D02*
X27661Y-38495D01*
X27661Y-38342D01*
X27680Y-38304D01*
X27700Y-38285D01*
X27738Y-38266D01*
X27795Y-38266D01*
X27833Y-38285D01*
X27852Y-38304D01*
X27871Y-38342D01*
X27871Y-38495D01*
X28061Y-37885D02*
X28061Y-38114D01*
X28061Y-37999D02*
X27661Y-37999D01*
X27719Y-38038D01*
X27757Y-38076D01*
X27776Y-38114D01*
G54D17*
X29439Y-41769D02*
X28848Y-41769D01*
X29439Y-41432D01*
X28848Y-41432D01*
X29439Y-40898D02*
X29129Y-40898D01*
X29073Y-40926D01*
X29045Y-40982D01*
X29045Y-41094D01*
X29073Y-41151D01*
X29410Y-40898D02*
X29439Y-40954D01*
X29439Y-41094D01*
X29410Y-41151D01*
X29354Y-41179D01*
X29298Y-41179D01*
X29242Y-41151D01*
X29214Y-41094D01*
X29214Y-40954D01*
X29185Y-40898D01*
X29045Y-40673D02*
X29439Y-40532D01*
X29045Y-40391D01*
X29410Y-40195D02*
X29439Y-40110D01*
X29439Y-39970D01*
X29410Y-39913D01*
X29382Y-39885D01*
X29326Y-39857D01*
X29270Y-39857D01*
X29214Y-39885D01*
X29185Y-39913D01*
X29157Y-39970D01*
X29129Y-40082D01*
X29101Y-40138D01*
X29073Y-40166D01*
X29017Y-40195D01*
X28960Y-40195D01*
X28904Y-40166D01*
X28876Y-40138D01*
X28848Y-40082D01*
X28848Y-39941D01*
X28876Y-39857D01*
X29045Y-39604D02*
X29635Y-39604D01*
X29073Y-39604D02*
X29045Y-39548D01*
X29045Y-39435D01*
X29073Y-39379D01*
X29101Y-39351D01*
X29157Y-39323D01*
X29326Y-39323D01*
X29382Y-39351D01*
X29410Y-39379D01*
X29439Y-39435D01*
X29439Y-39548D01*
X29410Y-39604D01*
X29439Y-38817D02*
X29129Y-38817D01*
X29073Y-38845D01*
X29045Y-38901D01*
X29045Y-39013D01*
X29073Y-39070D01*
X29410Y-38817D02*
X29439Y-38873D01*
X29439Y-39013D01*
X29410Y-39070D01*
X29354Y-39098D01*
X29298Y-39098D01*
X29242Y-39070D01*
X29214Y-39013D01*
X29214Y-38873D01*
X29185Y-38817D01*
X29439Y-38535D02*
X29045Y-38535D01*
X29157Y-38535D02*
X29101Y-38507D01*
X29073Y-38479D01*
X29045Y-38423D01*
X29045Y-38367D01*
X29439Y-38170D02*
X28848Y-38170D01*
X29214Y-38114D02*
X29439Y-37945D01*
X29045Y-37945D02*
X29270Y-38170D01*
X29439Y-37242D02*
X28848Y-37242D01*
X29270Y-37045D01*
X28848Y-36848D01*
X29439Y-36848D01*
X29439Y-36483D02*
X29410Y-36539D01*
X29382Y-36567D01*
X29326Y-36595D01*
X29157Y-36595D01*
X29101Y-36567D01*
X29073Y-36539D01*
X29045Y-36483D01*
X29045Y-36398D01*
X29073Y-36342D01*
X29101Y-36314D01*
X29157Y-36286D01*
X29326Y-36286D01*
X29382Y-36314D01*
X29410Y-36342D01*
X29439Y-36398D01*
X29439Y-36483D01*
X29439Y-35779D02*
X28848Y-35779D01*
X29410Y-35779D02*
X29439Y-35836D01*
X29439Y-35948D01*
X29410Y-36004D01*
X29382Y-36033D01*
X29326Y-36061D01*
X29157Y-36061D01*
X29101Y-36033D01*
X29073Y-36004D01*
X29045Y-35948D01*
X29045Y-35836D01*
X29073Y-35779D01*
X29045Y-35245D02*
X29439Y-35245D01*
X29045Y-35498D02*
X29354Y-35498D01*
X29410Y-35470D01*
X29439Y-35414D01*
X29439Y-35330D01*
X29410Y-35273D01*
X29382Y-35245D01*
X29439Y-34880D02*
X29410Y-34936D01*
X29354Y-34964D01*
X28848Y-34964D01*
X29410Y-34430D02*
X29439Y-34486D01*
X29439Y-34598D01*
X29410Y-34655D01*
X29354Y-34683D01*
X29129Y-34683D01*
X29073Y-34655D01*
X29045Y-34598D01*
X29045Y-34486D01*
X29073Y-34430D01*
X29129Y-34402D01*
X29185Y-34402D01*
X29242Y-34683D01*
G54D14*
X27821Y-31349D02*
X28035Y-31349D01*
X28078Y-31364D01*
X28107Y-31392D01*
X28121Y-31435D01*
X28121Y-31464D01*
X28121Y-31207D02*
X27821Y-31207D01*
X27821Y-31092D01*
X27835Y-31064D01*
X27850Y-31050D01*
X27878Y-31035D01*
X27921Y-31035D01*
X27950Y-31050D01*
X27964Y-31064D01*
X27978Y-31092D01*
X27978Y-31207D01*
X28121Y-30750D02*
X28121Y-30921D01*
X28121Y-30835D02*
X27821Y-30835D01*
X27864Y-30864D01*
X27892Y-30892D01*
X27907Y-30921D01*
G54D10*
X40290Y-38438D02*
X40308Y-38382D01*
X40327Y-38363D01*
X40365Y-38344D01*
X40421Y-38344D01*
X40458Y-38363D01*
X40477Y-38382D01*
X40496Y-38419D01*
X40496Y-38569D01*
X40102Y-38569D01*
X40102Y-38438D01*
X40121Y-38400D01*
X40140Y-38382D01*
X40177Y-38363D01*
X40215Y-38363D01*
X40252Y-38382D01*
X40271Y-38400D01*
X40290Y-38438D01*
X40290Y-38569D01*
X40102Y-38232D02*
X40102Y-38007D01*
X40496Y-38119D02*
X40102Y-38119D01*
X40496Y-37669D02*
X40496Y-37894D01*
X40496Y-37782D02*
X40102Y-37782D01*
X40158Y-37819D01*
X40196Y-37857D01*
X40215Y-37894D01*
X40346Y-37501D02*
X40346Y-37201D01*
X40102Y-37051D02*
X40102Y-36807D01*
X40252Y-36938D01*
X40252Y-36882D01*
X40271Y-36844D01*
X40290Y-36826D01*
X40327Y-36807D01*
X40421Y-36807D01*
X40458Y-36826D01*
X40477Y-36844D01*
X40496Y-36882D01*
X40496Y-36994D01*
X40477Y-37032D01*
X40458Y-37051D01*
X40233Y-36676D02*
X40496Y-36582D01*
X40233Y-36488D01*
X40346Y-36338D02*
X40346Y-36038D01*
X40458Y-35626D02*
X40477Y-35645D01*
X40496Y-35701D01*
X40496Y-35738D01*
X40477Y-35795D01*
X40440Y-35832D01*
X40402Y-35851D01*
X40327Y-35870D01*
X40271Y-35870D01*
X40196Y-35851D01*
X40158Y-35832D01*
X40121Y-35795D01*
X40102Y-35738D01*
X40102Y-35701D01*
X40121Y-35645D01*
X40140Y-35626D01*
X40496Y-35232D02*
X40308Y-35363D01*
X40496Y-35457D02*
X40102Y-35457D01*
X40102Y-35307D01*
X40121Y-35270D01*
X40140Y-35251D01*
X40177Y-35232D01*
X40233Y-35232D01*
X40271Y-35251D01*
X40290Y-35270D01*
X40308Y-35307D01*
X40308Y-35457D01*
X40140Y-35082D02*
X40121Y-35063D01*
X40102Y-35026D01*
X40102Y-34932D01*
X40121Y-34895D01*
X40140Y-34876D01*
X40177Y-34857D01*
X40215Y-34857D01*
X40271Y-34876D01*
X40496Y-35101D01*
X40496Y-34857D01*
X40102Y-34613D02*
X40102Y-34576D01*
X40121Y-34538D01*
X40140Y-34520D01*
X40177Y-34501D01*
X40252Y-34482D01*
X40346Y-34482D01*
X40421Y-34501D01*
X40458Y-34520D01*
X40477Y-34538D01*
X40496Y-34576D01*
X40496Y-34613D01*
X40477Y-34651D01*
X40458Y-34670D01*
X40421Y-34688D01*
X40346Y-34707D01*
X40252Y-34707D01*
X40177Y-34688D01*
X40140Y-34670D01*
X40121Y-34651D01*
X40102Y-34613D01*
X40102Y-34351D02*
X40102Y-34107D01*
X40252Y-34238D01*
X40252Y-34182D01*
X40271Y-34145D01*
X40290Y-34126D01*
X40327Y-34107D01*
X40421Y-34107D01*
X40458Y-34126D01*
X40477Y-34145D01*
X40496Y-34182D01*
X40496Y-34295D01*
X40477Y-34332D01*
X40458Y-34351D01*
X40140Y-33957D02*
X40121Y-33939D01*
X40102Y-33901D01*
X40102Y-33807D01*
X40121Y-33770D01*
X40140Y-33751D01*
X40177Y-33732D01*
X40215Y-33732D01*
X40271Y-33751D01*
X40496Y-33976D01*
X40496Y-33732D01*
X32455Y-37184D02*
X32474Y-37128D01*
X32492Y-37109D01*
X32530Y-37090D01*
X32586Y-37090D01*
X32624Y-37109D01*
X32642Y-37128D01*
X32661Y-37165D01*
X32661Y-37315D01*
X32268Y-37315D01*
X32268Y-37184D01*
X32286Y-37146D01*
X32305Y-37128D01*
X32343Y-37109D01*
X32380Y-37109D01*
X32417Y-37128D01*
X32436Y-37146D01*
X32455Y-37184D01*
X32455Y-37315D01*
X32549Y-36940D02*
X32549Y-36753D01*
X32661Y-36978D02*
X32268Y-36846D01*
X32661Y-36715D01*
X32268Y-36640D02*
X32268Y-36415D01*
X32661Y-36528D02*
X32268Y-36528D01*
X32268Y-36340D02*
X32268Y-36115D01*
X32661Y-36228D02*
X32268Y-36228D01*
X32455Y-35984D02*
X32455Y-35853D01*
X32661Y-35796D02*
X32661Y-35984D01*
X32268Y-35984D01*
X32268Y-35796D01*
X32661Y-35403D02*
X32474Y-35534D01*
X32661Y-35628D02*
X32268Y-35628D01*
X32268Y-35478D01*
X32286Y-35440D01*
X32305Y-35421D01*
X32343Y-35403D01*
X32399Y-35403D01*
X32436Y-35421D01*
X32455Y-35440D01*
X32474Y-35478D01*
X32474Y-35628D01*
X32474Y-35159D02*
X32661Y-35159D01*
X32268Y-35290D02*
X32474Y-35159D01*
X32268Y-35028D01*
M02*
