G04 (created by PCBNEW (2013-may-18)-stable) date Sun 22 Jun 2014 12:37:11 AM EDT*
%MOIN*%
G04 Gerber Fmt 3.4, Leading zero omitted, Abs format*
%FSLAX34Y34*%
G01*
G70*
G90*
G04 APERTURE LIST*
%ADD10C,0.00590551*%
%ADD11R,0.06X0.06*%
%ADD12C,0.06*%
%ADD13C,0.16*%
%ADD14R,0.055X0.055*%
%ADD15C,0.055*%
%ADD16R,0.19685X0.106299*%
%ADD17C,0.669291*%
G04 APERTURE END LIST*
G54D10*
G54D11*
X25881Y-30005D03*
G54D12*
X25881Y-29005D03*
X26881Y-30005D03*
X26881Y-29005D03*
X27881Y-30005D03*
X27881Y-29005D03*
X28881Y-30005D03*
X28881Y-29005D03*
X29881Y-30005D03*
X29881Y-29005D03*
X30881Y-30005D03*
X30881Y-29005D03*
X31881Y-30005D03*
X31881Y-29005D03*
X32881Y-30005D03*
X32881Y-29005D03*
X33881Y-30005D03*
X33881Y-29005D03*
X34881Y-30005D03*
X34881Y-29005D03*
X35881Y-30005D03*
X35881Y-29005D03*
X36881Y-30005D03*
X36881Y-29005D03*
X37881Y-30005D03*
X37881Y-29005D03*
G54D13*
X35100Y-42900D03*
G54D14*
X31800Y-43700D03*
G54D15*
X31800Y-42700D03*
X31800Y-41700D03*
X31800Y-40700D03*
X31800Y-39700D03*
X31800Y-38700D03*
X31800Y-37700D03*
X31800Y-36700D03*
X31800Y-35700D03*
X31800Y-34700D03*
X31800Y-33700D03*
X31800Y-32700D03*
X25800Y-32700D03*
X25800Y-33700D03*
X25800Y-34700D03*
X25800Y-35700D03*
X25800Y-36700D03*
X25800Y-37700D03*
X25800Y-38700D03*
X25800Y-39700D03*
X25800Y-40700D03*
X25800Y-41700D03*
X25800Y-42700D03*
X25800Y-43700D03*
G54D11*
X26200Y-31100D03*
G54D12*
X27200Y-31100D03*
G54D16*
X36400Y-31711D03*
X36400Y-40688D03*
G54D17*
X36400Y-36200D03*
M02*
